<svg width="67" height="65" viewBox="0 0 67 65" fill="none" xmlns="http://www.w3.org/2000/svg">
<g id="healthicons:i-exam-multiple-choice-outline">
<g id="Group">
<path id="Vector" d="M27.9167 20.3125C27.9167 19.9534 28.0637 19.6089 28.3255 19.355C28.5873 19.101 28.9423 18.9583 29.3125 18.9583H40.4792C40.8494 18.9583 41.2044 19.101 41.4662 19.355C41.728 19.6089 41.875 19.9534 41.875 20.3125C41.875 20.6716 41.728 21.0161 41.4662 21.27C41.2044 21.524 40.8494 21.6667 40.4792 21.6667H29.3125C28.9423 21.6667 28.5873 21.524 28.3255 21.27C28.0637 21.0161 27.9167 20.6716 27.9167 20.3125ZM29.3125 24.375C28.9423 24.375 28.5873 24.5177 28.3255 24.7716C28.0637 25.0256 27.9167 25.37 27.9167 25.7292C27.9167 26.0883 28.0637 26.4328 28.3255 26.6867C28.5873 26.9407 28.9423 27.0833 29.3125 27.0833H40.4792C40.8494 27.0833 41.2044 26.9407 41.4662 26.6867C41.728 26.4328 41.875 26.0883 41.875 25.7292C41.875 25.37 41.728 25.0256 41.4662 24.7716C41.2044 24.5177 40.8494 24.375 40.4792 24.375H29.3125ZM27.9167 37.9167C27.9167 37.5575 28.0637 37.2131 28.3255 36.9591C28.5873 36.7052 28.9423 36.5625 29.3125 36.5625H40.4792C40.8494 36.5625 41.2044 36.7052 41.4662 36.9591C41.728 37.2131 41.875 37.5575 41.875 37.9167C41.875 38.2758 41.728 38.6203 41.4662 38.8742C41.2044 39.1282 40.8494 39.2708 40.4792 39.2708H29.3125C28.9423 39.2708 28.5873 39.1282 28.3255 38.8742C28.0637 38.6203 27.9167 38.2758 27.9167 37.9167ZM29.3125 41.9792C28.9423 41.9792 28.5873 42.1218 28.3255 42.3758C28.0637 42.6297 27.9167 42.9742 27.9167 43.3333C27.9167 43.6925 28.0637 44.0369 28.3255 44.2909C28.5873 44.5448 28.9423 44.6875 29.3125 44.6875H40.4792C40.8494 44.6875 41.2044 44.5448 41.4662 44.2909C41.728 44.0369 41.875 43.6925 41.875 43.3333C41.875 42.9742 41.728 42.6297 41.4662 42.3758C41.2044 42.1218 40.8494 41.9792 40.4792 41.9792H29.3125Z" fill="black"/>
<path id="Vector_2" fill-rule="evenodd" clip-rule="evenodd" d="M13.9583 36.5625C13.9583 36.2034 14.1054 35.8589 14.3671 35.605C14.6289 35.351 14.9839 35.2083 15.3541 35.2083H22.3333C22.7035 35.2083 23.0585 35.351 23.3203 35.605C23.5821 35.8589 23.7291 36.2034 23.7291 36.5625V43.3333C23.7291 43.6925 23.5821 44.0369 23.3203 44.2909C23.0585 44.5448 22.7035 44.6875 22.3333 44.6875H15.3541C14.9839 44.6875 14.6289 44.5448 14.3671 44.2909C14.1054 44.0369 13.9583 43.6925 13.9583 43.3333V36.5625ZM16.75 37.9167V41.9792H20.9375V37.9167H16.75Z" fill="black"/>
<path id="Vector_3" d="M24.716 21.2699C24.9703 21.0145 25.111 20.6724 25.1078 20.3174C25.1046 19.9623 24.9578 19.6227 24.699 19.3716C24.4402 19.1205 24.0901 18.9781 23.7241 18.975C23.3581 18.9719 23.0055 19.1084 22.7423 19.3551L18.1458 23.8144L16.341 22.0634C16.0777 21.8168 15.7252 21.6803 15.3592 21.6834C14.9932 21.6864 14.6431 21.8289 14.3843 22.0799C14.1255 22.331 13.9787 22.6707 13.9755 23.0257C13.9723 23.3808 14.113 23.7228 14.3673 23.9782L18.1458 27.644L24.716 21.2699Z" fill="black"/>
<path id="Vector_4" fill-rule="evenodd" clip-rule="evenodd" d="M13.9583 8.125C12.4775 8.125 11.0574 8.69568 10.0103 9.7115C8.96324 10.7273 8.375 12.1051 8.375 13.5417V51.4583C8.375 52.8949 8.96324 54.2727 10.0103 55.2885C11.0574 56.3043 12.4775 56.875 13.9583 56.875H41.875C43.3558 56.875 44.7759 56.3043 45.823 55.2885C46.8701 54.2727 47.4583 52.8949 47.4583 51.4583V13.5417C47.4583 12.1051 46.8701 10.7273 45.823 9.7115C44.7759 8.69568 43.3558 8.125 41.875 8.125H13.9583ZM11.1667 13.5417C11.1667 12.8234 11.4608 12.1345 11.9843 11.6266C12.5079 11.1187 13.2179 10.8333 13.9583 10.8333H41.875C42.6154 10.8333 43.3255 11.1187 43.849 11.6266C44.3725 12.1345 44.6667 12.8234 44.6667 13.5417V51.4583C44.6667 52.1766 44.3725 52.8655 43.849 53.3734C43.3255 53.8813 42.6154 54.1667 41.875 54.1667H13.9583C13.2179 54.1667 12.5079 53.8813 11.9843 53.3734C11.4608 52.8655 11.1667 52.1766 11.1667 51.4583V13.5417ZM50.25 21.6667C50.25 20.5892 50.6912 19.5559 51.4765 18.794C52.2618 18.0322 53.3269 17.6042 54.4375 17.6042C55.5481 17.6042 56.6132 18.0322 57.3985 18.794C58.1838 19.5559 58.625 20.5892 58.625 21.6667V49.1603L54.4375 55.2541L50.25 49.1603V21.6667ZM54.4375 20.3125C54.0673 20.3125 53.7123 20.4552 53.4505 20.7091C53.1887 20.9631 53.0417 21.3075 53.0417 21.6667V24.375H55.8333V21.6667C55.8333 21.3075 55.6863 20.9631 55.4245 20.7091C55.1627 20.4552 54.8077 20.3125 54.4375 20.3125ZM54.4375 50.3709L53.0417 48.3397V27.0833H55.8333V48.3397L54.4375 50.3709Z" fill="black"/>
</g>
</g>
</svg>
