<svg xmlns="http://www.w3.org/2000/svg" width="625" height="526" fill="none" viewBox="0 0 625 526">
  <path fill="#020202" d="M418.182 265.896c.04-.459.08-.926.113-1.394.226 1.368.453 2.746.736 4.097l1.188 6.001a249.54 249.54 0 0 1 1.173 5.993c.01.055.036.106.076.143a.228.228 0 0 0 .142.065h.008c.242.026.477.052.719.086l.081 2.382-.776.329c-2.911 1.247-6.791-1.039-6.791-1.039a5.944 5.944 0 0 0 .275-1.949 39.731 39.731 0 0 0 1.431-4.832 68.23 68.23 0 0 0 .986-4.902c.275-1.654.485-3.308.639-4.98Z"/>
  <path fill="#020202" d="M445.833 216.118v-.009c-.154-.346-.227-.528-.227-.528l-.008-.009a12.817 12.817 0 0 0-4.649-1.541c-.024 0-.048-.009-.064-.009a30.97 30.97 0 0 0-3.622-.485.27.27 0 0 0-.089-.009c-3.21-.234-6.436.061-7.956 1.472l-.008.009a47.313 47.313 0 0 1-4.366 3.473c-.041.026-.073.061-.113.087a136.578 136.578 0 0 1-6.105 4.122c-.008.008-.016.017-.024.017-2.789 1.888-4.334 5.153-5.182 8.123-.025.078-.041.148-.065.225a.137.137 0 0 1-.008.053 82.194 82.194 0 0 1-.21 4.217 76.85 76.85 0 0 1-.857 7.006 50.636 50.636 0 0 1-.712 3.473 18.266 18.266 0 0 1-1.172 3.438c-.243.546-.534 1.091-.801 1.594a14.77 14.77 0 0 0-1.495 4.641 18.985 18.985 0 0 0 .21 6.651 32.705 32.705 0 0 0 3.824 9.622.197.197 0 0 1 .032.052c.033.052.065.112.097.164.041.07.089.148.13.225.024.035.04.07.064.105a.061.061 0 0 1 .017.034c.023.054.05.106.08.156.081.156.178.329.275.52.154.311.332.666.518 1.065v.008c.097.2.186.407.283.615.073.156.137.321.202.485.073.173.145.355.21.537a.771.771 0 0 1 .057.147c.097.26.194.529.283.797l.048.147a13.446 13.446 0 0 1 .227.762l.145.537c-.008.009 0 .009 0 .018v.008a12.266 12.266 0 0 1 .194.988c.024.156.049.311.065.467.024.234.048.459.057.684a41.455 41.455 0 0 1 .202-4.728c.153-1.663.363-3.326.63-4.971.267-1.646.596-3.282.987-4.91.283-1.169.59-2.33.962-3.482-.299-1.888-.51-3.793-.72-5.698a96.096 96.096 0 0 1-.364-12.306c.08-2.059.285-4.11.615-6.14.081-.503.17-1.014.299-1.516.113-.502.21-1.005.364-1.489a11.632 11.632 0 0 1 1.108-2.867.076.076 0 0 1 .046-.04.076.076 0 0 1 .059.005.101.101 0 0 1 .032.113v.009a22.027 22.027 0 0 0-1.132 5.906 62.708 62.708 0 0 0-.234 6.053c.016 4.045.307 8.08.646 12.125l.59 6.053c.227 2.018.397 4.044.68 6.062.275 2.009.509 4.036.865 6.036.356 1.94.711 3.863 1.099 5.794 3.655.346 7.35.476 11.012.433 1.86-.035 3.72-.087 5.555-.268a24.795 24.795 0 0 0 2.692-.416 6.477 6.477 0 0 0 2.029-.736l2.329-20.932 1.132-10.643c.162-1.776.315-3.551.437-5.326a62.37 62.37 0 0 0 .194-5.344v-.008a.093.093 0 0 1 .025-.06.087.087 0 0 1 .055-.027.08.08 0 0 1 .055.022.087.087 0 0 1 .026.056 73.69 73.69 0 0 1 .251 10.765c-.105 3.585-.348 7.162-.623 10.738-.299 3.568-.614 7.136-1.035 10.687-.388 3.559-.889 7.093-1.366 10.643l-.008.061a.712.712 0 0 1-.089.259.671.671 0 0 1-.178.2 6.43 6.43 0 0 1-2.878 1.169v1.715c9.217-.433 14.86-4.183 17.925-7.162v-.009a19.907 19.907 0 0 0 2.134-2.407c.318-.416.607-.856.865-1.317a320.631 320.631 0 0 0-16.558-56.256Zm-21.765 61.227a1.18 1.18 0 0 1-.83-.396 1.347 1.347 0 0 1-.341-.903c0-.337.122-.66.341-.902.218-.243.516-.385.83-.397.314.012.612.154.83.397.218.242.34.565.34.902 0 .337-.122.661-.34.903a1.18 1.18 0 0 1-.83.396Zm5.821.312a1.18 1.18 0 0 1-.83-.396 1.349 1.349 0 0 1-.341-.903c0-.337.122-.66.341-.903a1.18 1.18 0 0 1 .83-.396c.314.012.612.154.83.396.218.243.34.566.34.903 0 .337-.122.66-.34.903a1.18 1.18 0 0 1-.83.396Zm4.948 0a1.18 1.18 0 0 1-.83-.396 1.353 1.353 0 0 1-.34-.903c0-.337.122-.66.34-.903a1.18 1.18 0 0 1 .83-.396c.314.012.612.154.83.396.218.243.34.566.34.903 0 .337-.122.66-.34.903a1.18 1.18 0 0 1-.83.396Zm4.948-.312a1.18 1.18 0 0 1-.83-.396 1.351 1.351 0 0 1-.34-.903c0-.337.122-.66.34-.902.218-.243.516-.385.83-.397.314.012.612.154.83.397.219.242.341.565.341.902 0 .337-.122.661-.341.903a1.18 1.18 0 0 1-.83.396ZM198.452 357.66c-.17.996-4.01 1.801-8.724 1.801-4.819 0-8.732-.84-8.732-1.87a1.08 1.08 0 0 0-.446.097c-.142.064-.27.158-.377.276a1.22 1.22 0 0 0-.246.41 1.31 1.31 0 0 0-.079.481l.542 22.413c.005.202.056.401.149.577.093.177.225.326.384.436 2.674 1.789 5.78 2.694 8.931 2.601 3.151-.092 6.206-1.178 8.784-3.121.155-.113.282-.266.369-.444.088-.178.133-.376.132-.577v-22.032c0-.229-.066-.453-.189-.64a1.052 1.052 0 0 0-.498-.408Zm-9.977 21.763a4.68 4.68 0 0 1-2.61-.529 5.101 5.101 0 0 1-1.982-1.896c-1.347-2.044-1.895-4.57-1.528-7.04a14.25 14.25 0 0 1 1.414-4.573 4.635 4.635 0 0 1 1.806-1.899 4.211 4.211 0 0 1 2.48-.543c.397-.013.787.119 1.105.373.319.255.548.618.649 1.03.059.363.033.736-.074 1.086-.107.35-.292.667-.54.923-1.31 1.429-4.31 5.361-1.116 8.279 2.983 2.728 2.636 4.521.396 4.789Zm10.349-71.611c-5.32.078-10.64.338-15.944.814a10.862 10.862 0 0 0 1.641-4.243c.437-4.365 6.501-8.418 6.501-8.418l-.024-1.169 5.311-1.014a11.311 11.311 0 0 0 3.664 4.15 10.343 10.343 0 0 0 5.068 1.774c6.113.346 27.959-10.08 30.708-11.535 19.792 11.691 10.332 25.876 10.332 25.876a15.842 15.842 0 0 0-3.614-1.844c-1.261-.485-2.554-.866-3.848-1.221-2.603-.667-5.239-1.144-7.891-1.533-5.288-.788-10.608-1.169-15.936-1.438-5.32-.225-10.64-.303-15.968-.199Z"/>
  <path fill="#020202" d="M237.932 347.562h-70.486s1.139-14.748.428-16.688c3.347-11.535 10.39-16.515 10.39-16.515a32.898 32.898 0 0 0 4.616-5.733c5.32.199 10.632.375 15.936.528 5.312.174 10.616.329 15.911.589 2.652.104 5.296.251 7.94.425 2.644.155 5.288.381 7.923.623 2.628.269 5.264.563 7.867 1.022a26.569 26.569 0 0 1 7.625 2.234c5.966 2.65 6.257 12.003 6.257 12.003 1.747 18.083-14.407 21.512-14.407 21.512ZM160.655 208.67a11.493 11.493 0 0 0 2.114-1.971 11.804 11.804 0 0 0 1.562-2.401c.42-.873.751-1.792.987-2.742.147-.473.201-.97.319-1.46.089-.496.14-.999.247-1.51.076.512.125 1.028.149 1.545.004.523-.029 1.044-.097 1.562a9.93 9.93 0 0 1-.89 3.008 8.57 8.57 0 0 1-1.838 2.48 6.106 6.106 0 0 1-2.553 1.489Zm19.647 13.25a15.472 15.472 0 0 1 .047-3.184 9.25 9.25 0 0 1 .312-1.596 4.441 4.441 0 0 1 .798-1.463c.726-.881 1.744-1.426 2.838-1.52a4.296 4.296 0 0 1 1.636.173c.465.139.934.261 1.403.375 1.839.488 3.745.624 5.629.404a5.908 5.908 0 0 0 2.497-.839 6.363 6.363 0 0 0 1.953-1.867l.026-.036.036-.047a5.695 5.695 0 0 0 .895-4.815l-.008-.029a.723.723 0 0 1-.016-.091 8.795 8.795 0 0 1-.023-1.548c.032-.528.127-1.05.284-1.551.17-.559.453-1.07.831-1.496a3.083 3.083 0 0 1 1.515-.862.588.588 0 0 1 .125-.017h.047a4.31 4.31 0 0 0 2.341-.649 1.63 1.63 0 0 0 .621-.827c.055-.178.085-.363.091-.55l.005-.145.004-.072.003-.037c-.003-.032.006.05.006.04v.002a1.867 1.867 0 0 0-.073-.245 11.598 11.598 0 0 0-1.477-2.454 14.961 14.961 0 0 1-1.655-2.769 13.891 13.891 0 0 1-1.237-6.337c.057-2.113.301-4.216.728-6.281a46.539 46.539 0 0 0-.071 6.282 13.845 13.845 0 0 0 3.207 8.222 11.343 11.343 0 0 1 1.799 2.757c.067.162.121.33.162.501l.01.05a.865.865 0 0 1 .011.089l.001.062.002.124.001.25a3.682 3.682 0 0 1-.14.997 3.227 3.227 0 0 1-1.124 1.642 5.402 5.402 0 0 1-3.243 1.02l.171-.017a1.56 1.56 0 0 0-.711.41 2.347 2.347 0 0 0-.444.852c-.11.367-.175.748-.192 1.133-.025.396-.016.794.025 1.189l-.023-.12a7.437 7.437 0 0 1-.418 4.954 6.766 6.766 0 0 1-.87 1.454l.061-.083a7.71 7.71 0 0 1-2.449 2.278c-.961.56-2.024.89-3.115.966-2.05.164-4.11-.084-6.075-.732a21.966 21.966 0 0 1-1.437-.498 3.395 3.395 0 0 0-1.277-.237 3.552 3.552 0 0 0-2.415 1.033 3.775 3.775 0 0 0-.797 1.176 8.748 8.748 0 0 0-.43 1.463 19.42 19.42 0 0 0-.401 3.116Zm-2.111-18.238c.124.749.311 1.484.56 2.197.239.69.54 1.354.897 1.982.36.631.769 1.227 1.222 1.783.451.575.963 1.094 1.469 1.676a6.326 6.326 0 0 1-1.91-1.193 7.227 7.227 0 0 1-1.472-1.818 7.241 7.241 0 0 1-.812-2.251 5.413 5.413 0 0 1 .046-2.376Z"/>
  <path fill="#020202" d="M162.444 207.501a7.7 7.7 0 0 0-1.257-.699 2.375 2.375 0 0 0-.657-.189c-.22-.029-.41.022-.456.185-.051.457.028.92.226 1.329.181.459.384.908.609 1.345l-.06-.087c1.386 1.245 2.837 2.427 4.298 3.571 1.475 1.127 2.966 2.226 4.518 3.206a37.542 37.542 0 0 0 4.769 2.635 18.393 18.393 0 0 0 5.028 1.509l.037.005a.682.682 0 0 1 .272.096c.084.052.157.12.216.202.36.493.612 1.066.734 1.678a3.032 3.032 0 0 1-.29 1.991c-.309.542-.743.99-1.26 1.301-.276.166-.504.41-.658.707a4.782 4.782 0 0 0-.413 2.352c.034.897.161 1.787.381 2.654l.014.057a.772.772 0 0 1-.018.439 2.307 2.307 0 0 1-.42.764 1.826 1.826 0 0 1-.733.537 1.986 1.986 0 0 1-1.575-.157 6.53 6.53 0 0 1-1.775-1.593.696.696 0 0 1-.083-.118l-.013-.025a6.35 6.35 0 0 0-.784-1.071 9.105 9.105 0 0 0-1.009-.966 10.724 10.724 0 0 0-2.389-1.441l-.027-.011a.636.636 0 0 1-.263-.22 51.32 51.32 0 0 0-2.709-3.548c-.944-1.153-1.924-2.277-2.969-3.324a29.872 29.872 0 0 0-3.28-2.97 16.888 16.888 0 0 0-3.771-2.22c1.416.387 2.77.999 4.016 1.817a28.509 28.509 0 0 1 3.583 2.71c1.131.996 2.197 2.071 3.229 3.18a52.07 52.07 0 0 1 2.94 3.51l-.29-.231c.985.369 1.917.885 2.767 1.533.429.33.833.696 1.208 1.093.399.414.751.877 1.049 1.378l-.095-.143c.379.465.828.857 1.328 1.162.118.07.253.1.388.084.02-.02.051-.02.089-.076a.95.95 0 0 0 .095-.163l-.004.495a14.383 14.383 0 0 1-.47-3.078 6.485 6.485 0 0 1 .606-3.282 3.498 3.498 0 0 1 1.242-1.317c.279-.158.517-.389.692-.67a1.21 1.21 0 0 0 .121-.815 2.634 2.634 0 0 0-.398-.94l.524.304a18.071 18.071 0 0 1-5.445-1.749 33.059 33.059 0 0 1-4.861-2.917 50.178 50.178 0 0 1-4.443-3.522 52.646 52.646 0 0 1-4.087-3.962l-.017-.018a.235.235 0 0 1-.043-.069 15.055 15.055 0 0 1-.516-1.456 5.392 5.392 0 0 1-.169-.776 1.556 1.556 0 0 1 .076-.86.577.577 0 0 1 .151-.197.529.529 0 0 1 .215-.109.878.878 0 0 1 .411.005c.241.063.473.161.689.292a7.96 7.96 0 0 1 1.186.863Zm19.895 7.285a18.034 18.034 0 0 1 5.456 3.199 27.136 27.136 0 0 1 4.438 4.738 32.421 32.421 0 0 1 1.77 2.788c.263.486.564.953.795 1.458l.693 1.517c.484 1.002.797 2.081 1.204 3.12.341 1.063.624 2.148.938 3.223a.311.311 0 0 1 .012.069l.003.04a65.59 65.59 0 0 0 .737 6.549c.172 1.074.396 2.137.672 3.186a12.549 12.549 0 0 0 1.088 2.904.658.658 0 0 1 .059.136l.006.019a110.94 110.94 0 0 0 1.585 4.758c.281.785.576 1.562.887 2.325.294.749.633 1.478 1.013 2.183a.844.844 0 0 1-.086.948 46.601 46.601 0 0 1-2.903 3.085 50.25 50.25 0 0 1-3.139 2.789 28.434 28.434 0 0 1-7.144 4.374l.529-.813c.029 3.525.002 7.044-.035 10.568l-.099 5.29c-.059 1.776-.09 3.508-.305 5.362a.69.69 0 0 1-.019.099l-.008.025c-.065.233-.1.474-.104.717a.73.73 0 0 0 .023.198.16.16 0 0 0-.074-.062.013.013 0 0 0-.007-.006.014.014 0 0 0-.009 0c-.034-.007.061.019.128.047.066.026.129.059.189.099.155.109.286.254.384.422.116.202.206.42.267.647.099.357.172.721.22 1.089.163 1.356.239 2.722.227 4.089a.792.792 0 0 1-.083.359.728.728 0 0 1-.233.273l-.017.011a22.865 22.865 0 0 0-4.069 3.587 12.16 12.16 0 0 0-1.544 2.207l-.285.599-.212.618c-.114.426-.167.793-.276 1.371a14.419 14.419 0 0 1-2.658 5.374 34.31 34.31 0 0 1-3.798 4.341l-.038.033-.014.01a24.168 24.168 0 0 0-3.47 3.26 32.082 32.082 0 0 0-2.947 3.886 34.69 34.69 0 0 0-2.375 4.335 41.923 41.923 0 0 0-1.839 4.648 40.038 40.038 0 0 1 1.59-4.773 35.688 35.688 0 0 1 2.219-4.497 33.109 33.109 0 0 1 2.838-4.101 21.953 21.953 0 0 1 3.506-3.534l-.051.042a33.508 33.508 0 0 0 3.569-4.309 13.385 13.385 0 0 0 2.323-4.951c.069-.379.137-.987.267-1.5l.242-.764.316-.717a13.653 13.653 0 0 1 1.663-2.524 22.61 22.61 0 0 1 4.294-3.927l-.333.643a30.492 30.492 0 0 0-.261-3.844c-.072-.561-.301-1.354-.346-1.089a1.449 1.449 0 0 1-.688-.773 2.294 2.294 0 0 1-.144-.775c-.006-.421.048-.84.16-1.244l-.026.124c.163-1.642.199-3.433.248-5.171l.075-5.262.014-10.539a.922.922 0 0 1 .146-.495.816.816 0 0 1 .383-.318 26.96 26.96 0 0 0 6.749-4.101 48.32 48.32 0 0 0 3.045-2.681 46.597 46.597 0 0 0 2.828-2.923l-.086.948a21.513 21.513 0 0 1-1.074-2.388 57.86 57.86 0 0 1-.881-2.403 112.738 112.738 0 0 1-1.546-4.856l.065.154a13.902 13.902 0 0 1-1.153-3.297 34.47 34.47 0 0 1-.617-3.336 66.915 66.915 0 0 1-.584-6.709l.015.109c-.28-1.052-.528-2.118-.834-3.164-.37-1.018-.649-2.082-1.095-3.068a34.438 34.438 0 0 0-2.968-5.748 26.938 26.938 0 0 0-4.158-4.848 19.118 19.118 0 0 0-5.243-3.482Z"/>
  <path fill="#020202" d="M159.954 207.571a50.863 50.863 0 0 0-5.428 6.703c-1.681 2.353-3.245 4.802-4.751 7.288-3.033 4.946-5.927 10.052-8.476 15.269-5.045 10.462-8.94 21.796-10.358 33.595a63.225 63.225 0 0 0-.238 2.206c-.049.71-.022 1.479-.025 2.216l.019 4.467.057 8.935c.019 5.955.004 11.908-.045 17.859-.024 11.904-.271 23.799-.642 35.696l-.124-.421c1 1.424 2.155 2.716 3.441 3.848a12.586 12.586 0 0 0 4.319 2.566 7.624 7.624 0 0 0 4.868-.049 11.676 11.676 0 0 0 4.248-2.896.101.101 0 0 1 .027-.019.081.081 0 0 1 .031-.006.084.084 0 0 1 .079.085.098.098 0 0 1-.02.06 11.605 11.605 0 0 1-4.177 3.324 7.943 7.943 0 0 1-5.277.383 13.407 13.407 0 0 1-4.776-2.508 20.481 20.481 0 0 1-3.821-3.966.643.643 0 0 1-.124-.381l-.001-.041c-.035-11.912.053-23.826.364-35.731.121-5.953.274-11.905.458-17.855l.309-8.922.145-4.461c.037-.75.022-1.473.081-2.246.078-.745.168-1.487.271-2.225a155.12 155.12 0 0 1 3.602-17.479 98.869 98.869 0 0 1 6.028-16.742c.639-1.335 1.334-2.64 2.02-3.948l2.168-3.832c1.493-2.524 2.979-5.053 4.603-7.486 3.265-4.826 6.656-9.673 11.049-13.425a.077.077 0 0 1 .058-.019c.02.002.04.013.053.03a.09.09 0 0 1-.006.119l-.009.009Z"/>
  <path fill="#020202" d="M150.176 226.025a15.78 15.78 0 0 1 4.849-2.267 15.94 15.94 0 0 1 5.341-.631 11.82 11.82 0 0 1 5.239 1.62c1.562.993 2.824 2.447 3.636 4.188a15.59 15.59 0 0 0-4.201-2.98 15.031 15.031 0 0 0-4.772-1.1 24.967 24.967 0 0 0-5 .224c-1.681.234-3.37.553-5.092.946Zm-3.422 5.447a40.242 40.242 0 0 0-2.68 12.261 51.15 51.15 0 0 0-.042 6.289c.145 2.071.379 4.229.441 6.378.1 2.16.059 4.323-.123 6.476a18.542 18.542 0 0 1-.558 3.265c-.067.28-.157.553-.27.816a3.801 3.801 0 0 1-.382.81l-.241.396-.186.293c-.135.189-.25.395-.341.613a15.535 15.535 0 0 0-.981 2.884 39.44 39.44 0 0 0-.654 3.078 60.994 60.994 0 0 0-.778 6.297l-.157-.272a46.09 46.09 0 0 0 9.491 2.98c3.242.64 6.532.956 9.828.943a39.866 39.866 0 0 0 9.699-1.264 31.6 31.6 0 0 0 8.914-4.007l-.397.87a395.408 395.408 0 0 0-1.277-10.327 103.59 103.59 0 0 0-.831-5.099 23.86 23.86 0 0 0-.57-2.44 4.333 4.333 0 0 0-.19-.526l-.272-.684a7.688 7.688 0 0 1-.259-1.447 60.067 60.067 0 0 1 .494-10.581c.378-3.476.878-6.93 1.472-10.366a.096.096 0 0 1 .012-.032.1.1 0 0 1 .022-.024.076.076 0 0 1 .029-.013.065.065 0 0 1 .031-.001c.02.004.038.016.05.033a.093.093 0 0 1 .016.06c-.27 3.478-.505 6.955-.705 10.43a133.5 133.5 0 0 0-.184 5.204 37.033 37.033 0 0 0 .155 5.106c.043.378.12.75.231 1.111l.227.51c.106.22.198.448.276.681.283.854.52 1.724.71 2.606.39 1.727.677 3.458.95 5.188.548 3.462.952 6.929 1.299 10.416l.004.041a.906.906 0 0 1-.084.479.827.827 0 0 1-.317.35 33.031 33.031 0 0 1-9.461 4.013 37.053 37.053 0 0 1-10.063.916 53.758 53.758 0 0 1-9.934-1.502 62.774 62.774 0 0 1-9.574-3.112.253.253 0 0 1-.118-.104.28.28 0 0 1-.039-.158l.001-.01c.113-2.14.29-4.264.537-6.395.127-1.065.283-2.128.494-3.188.193-1.086.492-2.148.893-3.166.101-.274.228-.536.381-.781l.217-.378.145-.287c.11-.196.195-.408.252-.629.084-.226.148-.461.189-.7.212-.997.347-2.01.406-3.03.141-2.074.138-4.182.088-6.289a78.875 78.875 0 0 0-.139-3.156c-.064-1.043-.175-2.137-.186-3.212a44.367 44.367 0 0 1 .275-6.469 34.154 34.154 0 0 1 3.624-12.23.078.078 0 0 1 .106-.034c.018.01.032.028.039.048a.094.094 0 0 1-.002.064l-.003.008Zm43.395 5.985a28.268 28.268 0 0 1 1.481 7.408c.216 2.512.296 5.036.237 7.559-.037 1.258-.1 2.515-.165 3.771-.115 1.252-.185 2.507-.34 3.754a67.519 67.519 0 0 1-1.213 7.438c-.115-2.528-.085-5.03-.046-7.529l.148-7.475c.075-2.487.096-4.97.123-7.455a77.595 77.595 0 0 0-.225-7.471Zm-9.12-14.861c.435 6.733.794 13.467 1.075 20.2.304 6.733.53 13.468.785 20.2l.681 20.196c.115 3.366.239 6.731.399 10.093.082 1.68.124 3.367.268 5.041.066.837.111 1.68.194 2.516l.3 2.507-.542-2.469c-.147-.83-.25-1.667-.378-2.501-.265-1.67-.429-3.348-.632-5.024-.349-3.358-.644-6.72-.869-10.086-.264-3.364-.415-6.733-.613-10.101l-.423-10.108a770.763 770.763 0 0 1-.426-20.227 535.529 535.529 0 0 1 .181-20.237Zm.437-1.182c.379-.263.81-.431 1.258-.49.493-.074.994.051 1.405.351.409.324.701.789.828 1.316.129.483.188.983.177 1.485a8.859 8.859 0 0 0 .173 2.594c.051.186.137.359.252.51.114.15.256.274.416.365a1.84 1.84 0 0 0 1.203.104 1.68 1.68 0 0 1-1.326.3 1.68 1.68 0 0 1-.666-.369 1.824 1.824 0 0 1-.456-.637 6.804 6.804 0 0 1-.404-2.873 3.235 3.235 0 0 0-.588-2.267 2.554 2.554 0 0 0-1.095-.472 2.487 2.487 0 0 0-1.177.083Zm2.856-3.157c.494.037.972.2 1.395.475.433.27.814.627 1.122 1.051.314.428.533.926.641 1.458.115.52.099 1.064-.047 1.576-.201-.491-.336-.941-.549-1.352a6.62 6.62 0 0 0-.685-1.155 14.829 14.829 0 0 0-1.877-2.053Z"/>
  <path fill="#020202" d="M175.028 247.974c1.051-.205 2.101-.325 3.152-.446a.35.35 0 0 1 .262.079c.075.061.125.15.14.249l.014.09c.462 3.078.748 6.168.941 9.264.076 1.549.154 3.099.175 4.652a90.787 90.787 0 0 1-.034 4.666l-.003.088a.382.382 0 0 1-.104.253.34.34 0 0 1-.238.107c-.981.013-1.96.031-2.949-.027.944-.322 1.897-.566 2.849-.815l-.345.448a89.427 89.427 0 0 1-.585-4.624c-.164-1.544-.269-3.091-.377-4.638-.174-3.098-.256-6.202-.161-9.317l.415.417c-1.051-.121-2.101-.24-3.152-.446Zm16.07-2.411c-2.084.609-4.186 1.083-6.29 1.534l.487-.599c.077 1.576.143 3.152.176 4.729.057 1.576.042 3.152.065 4.728-.011 3.152-.048 6.305-.214 9.457l-.823-.583a51.696 51.696 0 0 0 3.169-1.395 23.272 23.272 0 0 0 1.539-.811c.514-.278.99-.628 1.417-1.041a5.629 5.629 0 0 1-1.186 1.398c-.452.406-.925.784-1.417 1.131a27.236 27.236 0 0 1-3.058 1.883.53.53 0 0 1-.537-.02.607.607 0 0 1-.282-.49l-.004-.072c-.166-3.152-.203-6.305-.215-9.457.024-1.576.009-3.152.066-4.728.033-1.577.099-3.153.176-4.729l.003-.068a.585.585 0 0 1 .149-.363.512.512 0 0 1 .335-.168c2.141-.172 4.284-.322 6.444-.336Zm-46.357 37.58c.276 3.524.543 7.05.864 10.566.164 1.757.333 3.516.568 5.251.277 1.764.412 3.549.404 5.338a91.693 91.693 0 0 1-.495 10.663c-.099.88-.239 1.799-.398 2.656-.15.86-.283 1.722-.399 2.585a41.493 41.493 0 0 0-.388 5.201 52.42 52.42 0 0 0 .748 10.402c.159.841.36 1.672.602 2.49.233.821.561 1.549.869 2.458a28.62 28.62 0 0 1 1.136 5.316 53.7 53.7 0 0 1 .135 10.756 34.877 34.877 0 0 1-.847 5.346 12.98 12.98 0 0 1-.925 2.622 5.162 5.162 0 0 1-.83 1.24 2.215 2.215 0 0 1-.699.536 2.078 2.078 0 0 1-.837.207l.157-.022c-1.597.385-3.14.621-4.715.845-1.568.217-3.137.39-4.708.533-3.142.289-6.287.468-9.433.574l.037-.003a9.69 9.69 0 0 0-3.282 1.036c-.475.284-.877.696-.832 1.136.134.535.44 1.003.863 1.321a.351.351 0 0 1 .034.474.332.332 0 0 1-.123.094 9.197 9.197 0 0 0-2.559 1.549 2.401 2.401 0 0 0-.77 1.153 1.39 1.39 0 0 0 .063.656c.073.209.195.395.354.54.349.355.747.652 1.18.878.432.226.896.373 1.372.437a5.367 5.367 0 0 0 2.874-.369.228.228 0 0 1 .191.005c.03.014.058.034.08.06a.287.287 0 0 1 .058.262.262.262 0 0 1-.095.141 7.917 7.917 0 0 0-2.038 2.18 2.034 2.034 0 0 0-.323 1.329c.058.221.16.426.297.602.138.175.309.318.502.417l.029.021c.409.191.853.282 1.299.265.485 0 .97-.044 1.448-.13a17.857 17.857 0 0 0 2.856-.82 40.583 40.583 0 0 0 5.445-2.611.293.293 0 0 1 .228-.025.313.313 0 0 1 .181.149.347.347 0 0 1-.094.445l-.01.007a18.19 18.19 0 0 0-2.967 2.587 5.735 5.735 0 0 0-1.73 3.326c-.011.29.042.578.155.842.054.134.12.262.197.383.038.06.086.113.127.171l.064.085c.046.055-.033-.029.011.006.53.168 1.093.173 1.625.015a15.103 15.103 0 0 0 3.541-1.42 50.646 50.646 0 0 0 6.577-4.371c2.118-1.598 4.164-3.314 6.201-5.04l-.037.033a13.145 13.145 0 0 1 2.335-1.795 7.303 7.303 0 0 1 2.802-1.049 3.788 3.788 0 0 1 1.622.117 3.957 3.957 0 0 1 1.447.792 6.422 6.422 0 0 1 1.711 2.715 21 21 0 0 1 .97 5.97c.051 1 .013 1.993.079 2.887.057.897.225 1.781.497 2.63.116.377.285.732.501 1.053.208.276.369.359.527.358.263-.029.511-.147.707-.337.241-.241.426-.54.54-.872.149-.409.266-.831.352-1.26.112-.493.235-.978.367-1.454.265-.951.549-1.863.778-2.771.848-3.657.925-7.471.225-11.164a1.025 1.025 0 0 1-.004-.271c.909-7.297 1.724-14.621 2.381-21.947.308-3.663.634-7.328.781-10.985.051-.916.043-1.822.068-2.734l-.059-2.733-.032-1.413.022-1.395c.008-.931.036-1.858.076-2.782.271-7.4.891-14.749 1.485-22.104.598-7.353 1.346-14.69 2.088-22.027a.098.098 0 0 1 .029-.058.08.08 0 0 1 .059-.019.08.08 0 0 1 .055.031.09.09 0 0 1 .018.062c-.509 7.358-.92 14.724-1.38 22.082-.419 7.359-.835 14.728-1.024 22.077a76.535 76.535 0 0 0-.035 2.749l-.002 1.372.051 1.352.102 2.797c-.012.932.01 1.871-.029 2.798a194.511 194.511 0 0 1-.654 11.091c-.637 7.364-1.43 14.697-2.319 22.029l-.004-.271c.323 1.965.493 3.956.51 5.951a23.247 23.247 0 0 1-.798 5.991c-.253.965-.552 1.894-.814 2.802-.129.454-.248.906-.356 1.356-.11.52-.259 1.029-.446 1.522a3.347 3.347 0 0 1-1.062 1.564 3.008 3.008 0 0 1-1.692.675 1.97 1.97 0 0 1-1.048-.326 2.727 2.727 0 0 1-.709-.7 5.623 5.623 0 0 1-.731-1.531 12.63 12.63 0 0 1-.556-3.072c-.064-1.044-.014-1.997-.055-2.938a19.464 19.464 0 0 0-.823-5.48 5.005 5.005 0 0 0-1.247-2.099 2.577 2.577 0 0 0-.952-.537 2.468 2.468 0 0 0-1.073-.084 8.707 8.707 0 0 0-4.415 2.39l-.036.034c-2.077 1.709-4.166 3.405-6.353 4.963a51.172 51.172 0 0 1-6.806 4.287 15.98 15.98 0 0 1-3.799 1.412 3.24 3.24 0 0 1-2.212-.174.674.674 0 0 1-.176-.157l-.089-.12c-.057-.08-.12-.158-.172-.242a3.244 3.244 0 0 1-.264-.539 2.826 2.826 0 0 1-.197-1.198 4.55 4.55 0 0 1 .713-2.152 9.825 9.825 0 0 1 1.297-1.674 18.764 18.764 0 0 1 3.14-2.626l.305.575c-.906.474-1.803.966-2.729 1.398-.921.442-1.86.842-2.818 1.198a18.49 18.49 0 0 1-2.953.822 8.704 8.704 0 0 1-1.545.124 3.018 3.018 0 0 1-1.609-.394l.028.02a2.042 2.042 0 0 1-.658-.578 2.212 2.212 0 0 1-.377-.817 2.578 2.578 0 0 1 .399-1.712c.283-.469.619-.899.999-1.28.369-.384.763-.739 1.179-1.061l.234.468a5.84 5.84 0 0 1-3.131.435 4.596 4.596 0 0 1-1.55-.48 5.24 5.24 0 0 1-1.329-.975 1.927 1.927 0 0 1-.501-.795 2.05 2.05 0 0 1-.08-.956 3 3 0 0 1 .944-1.498 9.797 9.797 0 0 1 2.728-1.695l-.089.568a2.95 2.95 0 0 1-1.103-1.772 1.65 1.65 0 0 1 .353-1.134c.22-.275.481-.507.773-.688a7.591 7.591 0 0 1 1.725-.778c.588-.19 1.187-.339 1.793-.448l.024-.003.013-.001c3.131-.19 6.257-.454 9.368-.825a100.72 100.72 0 0 0 4.65-.65c1.533-.257 3.098-.544 4.557-.937l.03-.008a.427.427 0 0 1 .128-.014c.392.019.897-.588 1.216-1.302.332-.753.593-1.539.781-2.347.387-1.678.644-3.386.768-5.109.28-3.471.211-6.964-.204-10.419a27.124 27.124 0 0 0-1.021-5.02c-.246-.757-.621-1.635-.861-2.51a26.8 26.8 0 0 1-.616-2.65 53.775 53.775 0 0 1-.679-10.719c.037-1.797.187-3.589.449-5.364.123-.886.285-1.764.455-2.638.182-.874.325-1.698.445-2.571a90.76 90.76 0 0 0 .718-10.502c.045-1.749-.047-3.5-.276-5.233-.178-1.775-.286-3.54-.39-5.308-.201-3.534-.353-7.07-.455-10.605 0-.023.007-.045.022-.062a.08.08 0 0 1 .055-.028.08.08 0 0 1 .058.022.09.09 0 0 1 .027.058Zm36.255 74.448a.83.83 0 0 1 .062-.324.78.78 0 0 1 .181-.268c.146-.158.309-.295.487-.408a6.52 6.52 0 0 1 1.085-.568 13.34 13.34 0 0 1 2.283-.685 23.585 23.585 0 0 1 9.339-.026c.779.158 1.545.386 2.289.682.382.15.749.34 1.096.567.184.117.351.263.497.431a.745.745 0 0 1 .208.694.076.076 0 0 1-.034.046.072.072 0 0 1-.055.007l-.007-.003-.331-.145.381-.007-.096.05c-.068-.301-.465-.427-.792-.53a8.04 8.04 0 0 0-1.084-.21 30.058 30.058 0 0 0-2.235-.194c-.749-.039-1.5-.078-2.253-.082-.75-.039-1.504-.027-2.257-.035a93.074 93.074 0 0 0-4.514.076c-.749.043-1.503.074-2.245.171a8.06 8.06 0 0 0-1.1.191c-.34.109-.75.177-.905.57Zm7.488 21.918a5.534 5.534 0 0 1-2.682-.395 5.893 5.893 0 0 1-2.233-1.639c-1.267-1.495-1.976-3.438-1.992-5.458.018-.987.175-1.965.467-2.902.263-.912.581-1.804.95-2.673.34-.898.83-1.723 1.447-2.432a5.046 5.046 0 0 1 2.4-1.492 4.423 4.423 0 0 1 1.452-.138 2.508 2.508 0 0 1 1.542.625 2.77 2.77 0 0 1 .723 1.727 2.811 2.811 0 0 1-.52 1.809c-.08.126-.168.245-.264.358l-.212.256c-.133.166-.265.331-.389.503-.25.337-.481.69-.692 1.056a7.085 7.085 0 0 0-.891 2.212 3.275 3.275 0 0 0 .211 2.094c.173.339.379.657.617.948.257.323.602.709.867 1.096a5.297 5.297 0 0 1 1.155 2.72c.006.27-.051.537-.164.777a1.436 1.436 0 0 1-.508.543 2.898 2.898 0 0 1-1.284.405Zm-.018-.172a2.518 2.518 0 0 0 1.166-.445.982.982 0 0 0 .342-.469c.066-.19.075-.398.027-.594a4.085 4.085 0 0 0-1.478-1.97c-.328-.293-.662-.488-1.025-.814-.186-.174-.388-.331-.563-.529-.16-.215-.334-.42-.478-.654a4.833 4.833 0 0 1-.56-3.286 7.65 7.65 0 0 1 1.179-2.858 13.566 13.566 0 0 1 1.345-1.706l.236-.25c.053-.056.104-.115.15-.178a1.355 1.355 0 0 0 .132-1.573 2.486 2.486 0 0 0-.92-.494 2.378 2.378 0 0 0-1.027-.064 3.715 3.715 0 0 0-2.175.985 5.415 5.415 0 0 0-1.34 2.221 11.264 11.264 0 0 0-.552 2.652 11.566 11.566 0 0 0-.004 2.63 14.597 14.597 0 0 0 1.483 4.888 4.9 4.9 0 0 0 1.636 1.907 3.622 3.622 0 0 0 2.426.601Z"/>
  <path fill="#020202" d="M122.1 372.021a59.332 59.332 0 0 0 6.068-.747 30.469 30.469 0 0 0 2.992-.671 11.788 11.788 0 0 0 2.862-1.139 11.977 11.977 0 0 1-2.804 1.346c-.975.349-1.969.64-2.97.889a60.036 60.036 0 0 1-6.074 1.184.384.384 0 0 1-.299-.084.446.446 0 0 1-.156-.287.46.46 0 0 1 .079-.321.405.405 0 0 1 .268-.167l.025-.002.009-.001Zm2.584 5.442 12.54-5.738-12.2 6.524a.38.38 0 0 1-.31.024.403.403 0 0 1-.234-.217.462.462 0 0 1 .057-.479.41.41 0 0 1 .125-.103l.022-.011Zm9.795 1.769 8.13-3.688-7.781 4.469a.38.38 0 0 1-.309.033.411.411 0 0 1-.239-.21.46.46 0 0 1-.031-.33.433.433 0 0 1 .23-.274Zm55.637-96.114a64.048 64.048 0 0 0 2.77 5.26 42.88 42.88 0 0 0 3.256 4.838 20.56 20.56 0 0 0 3.999 3.942 9.837 9.837 0 0 0 4.91 1.966l-.108.01a60.328 60.328 0 0 0 13.467-4.043c4.357-1.845 8.612-3.941 12.905-5.921l12.793-6.171c2.143-1.009 4.247-2.107 6.409-3.083a184.908 184.908 0 0 1 6.443-3.045.079.079 0 0 1 .062-.002c.02.009.036.025.044.047.008.019.009.04.003.06a.089.089 0 0 1-.034.048 179.21 179.21 0 0 1-6.057 3.869c-2.047 1.238-4.132 2.398-6.214 3.568-4.188 2.289-8.456 4.414-12.836 6.257-4.342 1.936-8.8 3.573-13.293 5.055l-6.718 2.279c-2.244.768-4.449 1.597-6.775 2.227a.282.282 0 0 1-.057.009l-.051.001a9.346 9.346 0 0 1-5.69-1.843 18.67 18.67 0 0 1-4.234-4.335 32.582 32.582 0 0 1-3.04-5.242 35.957 35.957 0 0 1-2.105-5.691.089.089 0 0 1 .007-.066.083.083 0 0 1 .048-.042.078.078 0 0 1 .056.006.078.078 0 0 1 .04.042Zm11.152-23.774c.688 1.683 1.453 3.327 2.23 4.959a61.483 61.483 0 0 0 2.54 4.761 28.936 28.936 0 0 0 3.062 4.311 8.87 8.87 0 0 0 1.88 1.655 2.72 2.72 0 0 0 2.159.437l.029-.002a70.907 70.907 0 0 0 9.596-1.605 79.43 79.43 0 0 0 9.365-2.762 64.092 64.092 0 0 0 8.931-4l2.134-1.216c.701-.423 1.372-.9 2.063-1.342l1.03-.673c.335-.237.656-.497.984-.744l1.962-1.499-.116.118 3.749-4.67 1.881-2.328.961-1.175c.359-.42.759-.798 1.192-1.128a7.19 7.19 0 0 1 4.477-1.487c.534.014.972.053 1.463.079l5.739.39 2.869.198 1.434.099c.274.007.547.045.813.111.287.083.56.216.808.392a2.84 2.84 0 0 1 1.041 1.484 3.271 3.271 0 0 1-.004 1.801c-.279 1.116-.939 2.079-1.849 2.698a3.941 3.941 0 0 1-1.467.615 6.405 6.405 0 0 1-1.509.059l-2.875-.083-5.749-.171.093-.159c.345.971.463 2.017.343 3.048a6.625 6.625 0 0 0-.529-2.951.123.123 0 0 1-.01-.042c0-.015.002-.029.006-.043a.123.123 0 0 1 .021-.037.1.1 0 0 1 .076-.037l5.749-.171 2.875-.083c.454.012.908-.03 1.353-.124.419-.11.815-.3 1.171-.56 1.404-.958 2.12-3.467.709-4.337a1.668 1.668 0 0 0-.504-.222 2.865 2.865 0 0 0-.613-.054l-1.436-.049-2.874-.097-5.747-.201c-.466-.017-.985-.05-1.409-.052-.429.001-.858.05-1.278.146a5.982 5.982 0 0 0-3.268 2.044l-.915 1.158-1.856 2.352-3.724 4.692-.008.01a.69.69 0 0 1-.108.108 52.358 52.358 0 0 1-8.428 5.653 61.51 61.51 0 0 1-9.172 4.022 77.183 77.183 0 0 1-9.577 2.629 71.582 71.582 0 0 1-9.815 1.291l.097-.015a3.645 3.645 0 0 1-2.814-.65 9.836 9.836 0 0 1-2.027-1.896 26.519 26.519 0 0 1-2.959-4.596 68.854 68.854 0 0 1-4.245-10.059Z"/>
  <path fill="#020202" d="m287.267 235.794-15.143 16.454c1.778.372 2.652.987 2.975 1.689a.137.137 0 0 0 .016.052c0 .008.008.008.008.017.096.265.137.55.121.834a2.065 2.065 0 0 1-.218.811l-.024.07a7.026 7.026 0 0 1-1.698 2.225l-.008.009c-.143.115-.305.2-.477.251h-.016a8.501 8.501 0 0 1-1.989.312c-2.037.139-4.503 0-4.503 0l-12.516 14.315 21.409 26.405 42.916-43.751-30.853-19.693Zm-18.782 44.721a1.18 1.18 0 0 1-.83-.396 1.353 1.353 0 0 1-.34-.903c0-.337.122-.66.34-.903a1.18 1.18 0 0 1 .83-.396c.315.012.612.154.83.396.219.243.341.566.341.903 0 .337-.122.66-.341.903a1.177 1.177 0 0 1-.83.396Zm-1.94-12.999 21.345-24.257 18.628 13.501-25.226 24.543-14.747-13.787Z"/>
  <path fill="#020202" d="m282.675 254.124 2.589-3.252 2.745-3.345.188-.228.254.176a302.295 302.295 0 0 1 4.907 3.477l.428.309-.383.37c-2.205 2.134-4.425 4.249-6.701 6.299l-.176.158-.158-.155c-1.308-1.282-2.526-2.608-3.693-3.809Zm0 0c1.406 1.203 2.759 2.282 4.023 3.404l-.334.004c2.123-2.231 4.302-4.395 6.496-6.541l.045.678a397.474 397.474 0 0 1-4.839-3.585l.442-.053-2.838 3.001-2.995 3.092Zm115.489-73.097a4.85 4.85 0 0 1 1.481-.759 6.324 6.324 0 0 1 1.62-.309 5.201 5.201 0 0 1 1.659.191 3.252 3.252 0 0 1 1.449.877 12.547 12.547 0 0 0-1.555-.211 17.033 17.033 0 0 0-1.516.008c-1.019.043-2.035.174-3.138.203Zm2.716 6.183c.315-.011.613-.153.831-.396.219-.242.341-.566.341-.903 0-.337-.122-.66-.341-.903a1.18 1.18 0 0 0-.831-.396 1.183 1.183 0 0 0-.831.396c-.218.243-.34.566-.34.903 0 .337.122.661.34.903.219.243.517.385.831.396Zm-207.674-.652a4.828 4.828 0 0 1 1.481-.759 6.324 6.324 0 0 1 1.62-.309 5.23 5.23 0 0 1 1.659.19 3.263 3.263 0 0 1 1.449.878 12.547 12.547 0 0 0-1.555-.211 17.033 17.033 0 0 0-1.516.008c-1.019.043-2.035.174-3.138.203Zm2.716 6.183c.315-.011.612-.153.831-.396.218-.242.341-.566.341-.903 0-.337-.123-.66-.341-.903a1.181 1.181 0 0 0-.831-.396 1.183 1.183 0 0 0-.831.396c-.218.243-.34.566-.34.903 0 .337.122.661.34.903.219.243.517.385.831.396Z"/>
  <path fill="#020202" d="M400.131 170.288a74.719 74.719 0 0 0 5.201 7.954 31.21 31.21 0 0 0 3.09 3.514c.546.534 1.137 1.01 1.768 1.423.571.412 1.24.64 1.929.658l-.3.176a10.648 10.648 0 0 1 1.851-2.177 5.033 5.033 0 0 1 2.603-1.319 3.424 3.424 0 0 1 1.527.223c.488.19.933.489 1.305.878a5.81 5.81 0 0 1 1.495 2.707c.227.997.283 2.03.166 3.049a11.851 11.851 0 0 1-.622 2.946 5.606 5.606 0 0 1-1.799 2.576 4.498 4.498 0 0 1-2.936.854l.745-.733c-.349 7.837-.884 15.68-1.013 23.519-.002.978-.018 1.958.025 2.93.004.491.054.965.09 1.445.027.452.149.891.357 1.285.074.19.187.359.331.495.144.136.315.235.501.288.413.045.831-.014 1.219-.173a12.818 12.818 0 0 0 2.424-1.25 100.335 100.335 0 0 0 8.933-6.812l.005-.004a.25.25 0 0 1 .056-.035 19.47 19.47 0 0 1 12.405-1.108c.509.154 1.031.271 1.532.459l1.477.561c.412.177.847.282 1.29.31.393-.022.581-.121.719-.402.142-.408.192-.846.147-1.279a9.927 9.927 0 0 0-.213-1.517 26.036 26.036 0 0 0-.889-3.065 64.973 64.973 0 0 0-2.466-5.974l-.347-.727c-.063-.127-.111-.238-.165-.326l-.195-.339-.809-1.415-1.604-2.839c-2.127-3.793-4.222-7.607-6.171-11.53-.481-.987-.964-1.973-1.418-2.986a18.543 18.543 0 0 1-1.206-3.305l-.085-.561-.023-.345c-.007-.221-.063-.487-.091-.728a16.967 16.967 0 0 0-.347-1.516 21.073 21.073 0 0 0-1.062-2.961c-1.531-3.944-4.461-7.076-8.146-8.708a11.744 11.744 0 0 0-5.867-.776c-2.043.162-4.073.47-6.076.922a48.513 48.513 0 0 0-5.947 1.735c-.485.183-.976.348-1.455.549-.482.167-.95.38-1.397.635a2.14 2.14 0 0 0-.784 1.296 2.247 2.247 0 0 0 .242 1.523Zm-.138.091a2.459 2.459 0 0 1-.279-1.66c.105-.571.406-1.08.844-1.424a8.353 8.353 0 0 1 1.435-.678l1.448-.59a66.766 66.766 0 0 1 5.916-1.999 44.316 44.316 0 0 1 6.113-1.278 12.669 12.669 0 0 1 6.33.464 13.71 13.71 0 0 1 5.486 3.569 19.704 19.704 0 0 1 3.74 5.577 22.823 22.823 0 0 1 1.188 3.201c.161.551.294 1.116.407 1.695.041.305.103.58.123.911l.033.481c.025.085.046.168.063.252.291.973.658 1.918 1.097 2.826.437.978.91 1.95 1.382 2.921 1.937 3.868 3.972 7.703 6.034 11.517l1.561 2.853.787 1.422.206.37c.082.146.141.287.198.404l.347.753a60.667 60.667 0 0 1 2.436 6.183c.355 1.073.644 2.169.866 3.282.112.58.18 1.169.201 1.761a4.215 4.215 0 0 1-.328 1.959 3.588 3.588 0 0 1-.336.489 2.128 2.128 0 0 1-.476.366 2.19 2.19 0 0 1-1.039.234 4.655 4.655 0 0 1-1.704-.447l-1.417-.605c-.465-.197-.952-.325-1.428-.493a18.403 18.403 0 0 0-11.888.619l.061-.039c-2.95 2.342-5.892 4.703-9.064 6.735a13.35 13.35 0 0 1-2.514 1.321 2.934 2.934 0 0 1-1.48.201 1.784 1.784 0 0 1-.713-.375 1.94 1.94 0 0 1-.496-.665 3.844 3.844 0 0 1-.46-1.498c-.051-.498-.114-1-.129-1.491-.061-.99-.091-1.975-.125-2.961-.094-3.94-.07-7.874-.025-11.808.044-3.934.14-7.864.319-11.795l.001-.02a.773.773 0 0 1 .229-.52.673.673 0 0 1 .505-.194l.01.001a3.162 3.162 0 0 0 2.078-.61 3.544 3.544 0 0 0 1.293-1.846c.293-.812.483-1.662.564-2.528a7.63 7.63 0 0 0-.044-2.554c-.326-1.575-1.543-3.112-2.987-3.03-1.478.136-2.896 1.479-3.911 2.846l-.028.037a.342.342 0 0 1-.272.139 4.086 4.086 0 0 1-2.309-.888 12.432 12.432 0 0 1-1.787-1.596 35.391 35.391 0 0 1-2.974-3.721c-1.834-2.595-3.505-5.308-5.088-8.076Z"/>
  <path fill="#020202" d="M415.31 195.787a12.384 12.384 0 0 1-.709 2.361 15.374 15.374 0 0 1-1.083 2.195 9.22 9.22 0 0 1-1.51 1.932 3.911 3.911 0 0 1-1.012.712 1.456 1.456 0 0 1-1.19.071 2.62 2.62 0 0 0 .995-.439c.301-.216.559-.494.758-.818a19.97 19.97 0 0 0 1.281-1.929c.817-1.337 1.566-2.733 2.47-4.085Zm-1.09 80.822c.245.638.396 1.313.445 2.001-.655 1.827-3.55 7.924-3.55 7.924a3.289 3.289 0 0 1-1.245-.554c-3.759-2.391-11.489-11.874-14.133-15.199l-.056-.061a.479.479 0 0 0-.049-.069c-.517-.65-.816-1.031-.816-1.031 10.624-12.782 12.952-30.085 14.116-38.659 1.164-8.573 4.18-10.747 4.18-10.747l.049 1.749c-.008-.234-.033-.459-.049-.693a.253.253 0 0 1-.008.078 178.1 178.1 0 0 1-1.164 13.839c-.307 2.295-.663 4.582-1.116 6.833-.218 1.135-.493 2.243-.76 3.352a16.165 16.165 0 0 1-1.107 3.118 22.83 22.83 0 0 1-.76 1.489 13.706 13.706 0 0 0-.752 1.671 15.954 15.954 0 0 0-.898 3.568 19.336 19.336 0 0 0 .396 7.249 27.332 27.332 0 0 0 2.604 6.599c.291.502.558 1.022.865 1.516l.946 1.455c.63.952 1.366 1.818 2.045 2.728.316.591.589 1.208.817 1.844Z"/>
  <path fill="#020202" d="M414.802 278.107c-.008.009 0 .009 0 .018v.008a2.007 2.007 0 0 1-.137.477 5.54 5.54 0 0 0-.025-1.1.062.062 0 0 0-.008-.035 13.446 13.446 0 0 0-.202-.667l-.048-.147a23.341 23.341 0 0 0-.283-.797.771.771 0 0 0-.057-.147 10.331 10.331 0 0 0-.21-.537c-.065-.164-.129-.329-.202-.485-.097-.208-.186-.415-.283-.615v-.008c-.186-.399-.364-.754-.518-1.065-.097-.191-.194-.364-.275-.52a1.274 1.274 0 0 1-.08-.156.061.061 0 0 0-.017-.034c-.024-.035-.04-.07-.064-.104-.041-.078-.089-.156-.13-.226-.032-.052-.064-.112-.097-.164a.197.197 0 0 0-.032-.052 32.705 32.705 0 0 1-3.824-9.622 18.985 18.985 0 0 1-.21-6.651 14.77 14.77 0 0 1 1.495-4.641c.267-.503.558-1.048.801-1.594a18.266 18.266 0 0 0 1.172-3.438c.275-1.152.517-2.304.712-3.473a74.88 74.88 0 0 0 .857-7.006c.105-1.403.177-2.806.21-4.217a.137.137 0 0 0 .008-.053c.016-.502.024-1.013.032-1.524l.032 1.299 1.383 47.276Zm1.575 5.165c.283.848.419 1.744.404 2.645a7.867 7.867 0 0 1-.404 2.645 7.867 7.867 0 0 1-.404-2.645 7.97 7.97 0 0 1 .404-2.645Zm24.551-2.698a37.633 37.633 0 0 1 1.339 8.613c.206 2.902.342 5.807.408 8.716.065 2.907.093 5.815.084 8.723.028 2.911-.165 5.824-.253 8.719l-.783 17.403-.393 8.702-.459 8.698-.03-.257a10.97 10.97 0 0 1 .338 4.264 9.217 9.217 0 0 1-1.508 4.007 3.457 3.457 0 0 1-.182.238l-.155.186-.313.368-.627.737-1.255 1.474-2.509 2.948-1.255 1.474-.628.737-.313.369c-.086.113-.172.219-.255.349a39.05 39.05 0 0 0-1.857 3.378 59.643 59.643 0 0 1-3.862 6.905 6.028 6.028 0 0 1-1.415 1.498 1.27 1.27 0 0 1-1.189.212 2.198 2.198 0 0 1-.292-.173l-.222-.227c-.113-.158-.202-.321-.3-.484a4.453 4.453 0 0 1-.344-2.127 9.633 9.633 0 0 1 .335-2.034 22.103 22.103 0 0 1 1.401-3.761l.436-.894c.146-.263.255-.548.323-.845a2.47 2.47 0 0 0 .037-.878 1.118 1.118 0 0 0-.299-.688c-.307-.27-.975-.019-1.415.314a6.401 6.401 0 0 0-1.21 1.4c-.78 1.04-1.558 2.08-2.358 3.104a64.139 64.139 0 0 1-2.47 3.012 30.34 30.34 0 0 1-1.33 1.427c-.233.228-.472.452-.722.667-.132.103-.255.211-.398.307-.071.052-.144.1-.22.143a.909.909 0 0 1-.326.129l.043-.006a7.903 7.903 0 0 1-2.379.269 2.73 2.73 0 0 1-1.231-.351 1.77 1.77 0 0 1-.528-.471 1.898 1.898 0 0 1-.315-.654 3.687 3.687 0 0 1-.042-1.365c.072-.454.229-.887.46-1.274a5.43 5.43 0 0 1 .768-1.02l.796-.901 3.18-3.606 1.591-1.803a17.522 17.522 0 0 0 1.487-1.789c.19-.306.335-.64.432-.992a1.47 1.47 0 0 0 .054-.823c.03-.038-.225-.109-.554-.019-.321.08-.627.22-.904.414a20.947 20.947 0 0 0-1.681 1.573c-.574.561-1.171 1.098-1.764 1.64a37.859 37.859 0 0 1-3.782 2.995c-.673.463-1.376.874-2.103 1.232a8.798 8.798 0 0 1-1.159.472 5.393 5.393 0 0 1-.632.166 2.38 2.38 0 0 1-.807.036l.238.002a4.211 4.211 0 0 1-1.526.063 1.902 1.902 0 0 1-.887-.391 1.763 1.763 0 0 1-.586-.952 3.294 3.294 0 0 1 .141-1.808 3.992 3.992 0 0 1 .871-1.422c.183-.192.381-.366.592-.521l.533-.404 1.063-.811 2.118-1.632a168.121 168.121 0 0 0 4.18-3.32 18.466 18.466 0 0 0 1.882-1.715c.055-.058.104-.123.146-.193l.059-.087a.14.14 0 0 1 .015-.045c.016-.023.008-.018.001.008.003.03.004.06.004.09.013.045.029.089.047.131.033.044.047.059.051.068a2.016 2.016 0 0 0-.734-.104l.313-.086-6.344 3.408-3.173 1.705-.793.426c-.269.138-.5.285-.87.444a3.551 3.551 0 0 1-2.234.195 2.668 2.668 0 0 1-1.151-.591 2.048 2.048 0 0 1-.476-.661 2.155 2.155 0 0 1-.191-.808 3.259 3.259 0 0 1 .237-1.319c.149-.382.353-.736.606-1.05a5.316 5.316 0 0 1 1.668-1.299l1.555-.918 6.22-3.669 6.22-3.669 3.11-1.835.778-.459c.241-.154.445-.309.671-.461.438-.313.84-.678 1.2-1.089a13.525 13.525 0 0 0 2.497-6.48c.353-2.43.409-4.898.169-7.343l-.005-.053v-.003l-.682-12.964-.639-12.964-.309-6.481c-.078-1.079-.056-2.162-.038-3.244l.056-3.248.234-12.984c0-.023.009-.044.024-.06a.077.077 0 0 1 .113 0 .087.087 0 0 1 .024.06l.234 12.968.056 3.241c.009 1.08.014 2.16.119 3.238l.471 6.468.923 12.935.879 12.934-.005-.055a32.138 32.138 0 0 1-.058 7.816c-.273 2.701-1.26 5.264-2.844 7.386a8.74 8.74 0 0 1-1.49 1.371c-.272.188-.555.394-.822.563l-.775.462-3.101 1.844-6.202 3.69-6.203 3.689-1.55.922c-.451.212-.86.513-1.206.887a2.112 2.112 0 0 0-.33.555 1.427 1.427 0 0 0-.115.529c.014.12.012.123.078.194.13.103.28.174.439.21.417.099.853.061 1.25-.109.182-.071.468-.235.732-.37l.797-.418 3.186-1.673 6.374-3.346.019-.011a.679.679 0 0 1 .295-.075c.272-.007.544.015.812.065.349.052.68.2.96.429.228.193.381.47.43.777.038.263.009.531-.085.777a4.265 4.265 0 0 1-.119.274l-.128.201a2.456 2.456 0 0 1-.265.35 18.703 18.703 0 0 1-2.104 1.901 154.326 154.326 0 0 1-4.252 3.309l-2.152 1.603-1.079.795-.54.396a3.067 3.067 0 0 0-.424.358 2.518 2.518 0 0 0-.569.89 1.903 1.903 0 0 0-.117.937c.051.183.106.248.421.329.358.05.721.036 1.074-.04l.239.002c-.052-.007.066.001.119-.005l.226-.028c.167-.031.331-.071.493-.122a7.604 7.604 0 0 0 1.009-.393c.681-.322 1.34-.693 1.973-1.112a36.848 36.848 0 0 0 3.724-2.804c.593-.517 1.19-1.028 1.769-1.567l.867-.808c.302-.306.631-.581.98-.822a3.65 3.65 0 0 1 1.229-.52 2.06 2.06 0 0 1 .734-.037c.167.019.327.08.468.177.141.097.259.228.344.382.133.274.182.585.143.89a3.84 3.84 0 0 1-.139.705 4.806 4.806 0 0 1-.568 1.234 17.345 17.345 0 0 1-1.618 1.881l-1.626 1.767-3.251 3.533a14.356 14.356 0 0 0-1.515 1.77 2.826 2.826 0 0 0-.393 1.012c-.066.362-.062.735.011 1.095.119.329.334.608.613.795.279.187.607.274.935.246a7.408 7.408 0 0 0 2.212-.237l.043-.007c-.05.005.061-.027.103-.06.062-.034.122-.072.179-.114.121-.079.24-.182.36-.274.236-.199.466-.412.693-.632.45-.444.888-.907 1.313-1.387a63.744 63.744 0 0 0 2.472-2.966 80.202 80.202 0 0 0 2.347-3.092 6.875 6.875 0 0 1 1.304-1.524 2.86 2.86 0 0 1 .918-.475 1.195 1.195 0 0 1 1.125.157c.29.269.473.646.514 1.055.056.367.044.742-.033 1.105-.076.351-.2.689-.368 1.001l-.419.88a21.461 21.461 0 0 0-1.323 3.659 8.888 8.888 0 0 0-.295 1.892 3.57 3.57 0 0 0 .301 1.755c.305.568.564.695 1.027.355.461-.372.86-.825 1.181-1.338a59.364 59.364 0 0 0 3.624-6.892 39.345 39.345 0 0 1 1.843-3.55c.089-.146.202-.297.31-.444l.305-.378.611-.755 1.222-1.51 4.849-6.002a7.756 7.756 0 0 0 1.218-3.338 9.405 9.405 0 0 0-.319-3.631.833.833 0 0 1-.03-.258l.406-8.697.473-8.693.949-17.388c.154-2.905.412-5.784.45-8.681.072-2.898.11-5.797.114-8.697-.003-2.898-.006-5.798-.117-8.693a86.795 86.795 0 0 0-.267-4.332 21.89 21.89 0 0 0-.707-4.248l-.003-.009a.094.094 0 0 1 .004-.066.081.081 0 0 1 .047-.044.072.072 0 0 1 .061.004c.019.01.034.028.041.05v-.001Z"/>
  <path fill="#020202" d="M424.238 340.114c.145 8.661-9.436 11.354-9.436 11.354s-51.567 9.24-55.448-12.168c-3.881-21.408 19.598-30.553 19.598-30.553 40.556-25.149 43.579-21.2 43.579-21.2l-.096 10.332c.009 7.289.395 14.571 1.156 21.815 0 0 .355 8.236.557 15.995-2.959-.632-5.934-1.108-8.909-1.524-3.113-.45-6.226-.805-9.347-1.135-3.121-.294-6.241-.571-9.37-.744-3.129-.182-6.266-.303-9.42-.26 3.089.667 6.194 1.169 9.298 1.611 3.113.45 6.226.796 9.347 1.117 3.12.294 6.241.571 9.37.745 3 .181 6.008.303 9.031.268.041 1.49.065 2.953.09 4.347Zm-12.004-68.359.251.382-.007-.013.07.1-.011-.013a.168.168 0 0 1 .037.054.186.186 0 0 1 .015.065l-.012-.054.081.137.006.009c.315.5.591 1.026.872 1.548.013.024.02.051.022.078l.001.024v.008l-.024-.105c.28.531.536 1.071.776 1.633l-.022-.049c.094.205.136.327.195.468l.169.418c.112.277.208.573.311.861l.015.108c-.014-.144-.018-.096 0-.063l-.02-.051a.476.476 0 0 1 .048.21l-.038-.176a.55.55 0 0 1 .057.236l-.015-.113.167.535-.099.411c.012-.031.056-.015.107-.232a.453.453 0 0 0-.044-.257c-.016-.028-.006-.012.009.017a.547.547 0 0 1 .043.195v.007l-.013-.105c.203.749.336 1.519.399 2.296.026.403.022.806-.011 1.208a7.007 7.007 0 0 1-.225 1.213l-.243-.678a11.73 11.73 0 0 0 1.742.733c.596.196 1.205.339 1.823.427a5.915 5.915 0 0 0 1.787-.008c.28-.047.556-.125.822-.233l.911-.401-.447.71-.111-2.661a.787.787 0 0 1 .217-.573.675.675 0 0 1 .547-.199l.02.002c1.586.185 3.174.339 4.76.487 1.588.144 3.175.258 4.762.344 1.587.089 3.176.149 4.758.1a19.255 19.255 0 0 0 4.636-.574l.049-.014a.349.349 0 0 1 .287.038.405.405 0 0 1 .178.245c.01.039.015.08.014.12l-.027.944-.004-.057.196 1.721-.327-.288a31.76 31.76 0 0 0 4.762-.493 26.116 26.116 0 0 0 4.611-1.335c2.985-1.182 5.711-3.01 8.008-5.369l-.154.374-.001-.009a.504.504 0 0 1 .136-.354l.021-.021a20.197 20.197 0 0 0 1.532-1.755c.237-.309.466-.623.679-.944.209-.309.402-.631.577-.964l-.063.449c-.555-2.384-1.059-4.78-1.653-7.153a298.172 298.172 0 0 0-1.749-7.123 639.616 639.616 0 0 0-3.846-14.14c-1.356-4.689-2.691-9.389-4.198-14.03a390.554 390.554 0 0 0-4.624-13.897l-.004-.012a.09.09 0 0 1-.005-.036v-.009l.011.05-.202-.544a.089.089 0 0 1 .001-.066.08.08 0 0 1 .044-.046.078.078 0 0 1 .06.001.088.088 0 0 1 .044.043l.251.512a.102.102 0 0 1 .01.038v.012l.001.009-.01-.048c2.068 4.411 3.863 8.96 5.575 13.542 1.651 4.606 3.254 9.238 4.65 13.943 1.44 4.69 2.672 9.452 3.797 14.238 1.163 4.778 2.127 9.607 3.025 14.447l.007.037a.611.611 0 0 1-.07.413c-.22.372-.461.73-.721 1.071a17.74 17.74 0 0 1-.78.965 20.76 20.76 0 0 1-1.71 1.748l.157-.376-.001.009v.031a.49.49 0 0 1-.154.343 24.89 24.89 0 0 1-4.015 3.009 27.006 27.006 0 0 1-4.45 2.134 31.455 31.455 0 0 1-4.697 1.343 44.113 44.113 0 0 1-4.824.641.291.291 0 0 1-.21-.068.33.33 0 0 1-.114-.2l-.003-.021-.286-1.707-.004-.033v-.025l-.027-.944.527.39a19.621 19.621 0 0 1-4.853.941 49.299 49.299 0 0 1-4.856.194 77.39 77.39 0 0 1-9.649-.779l.783-.769.067 2.655a.774.774 0 0 1-.117.432.694.694 0 0 1-.33.279l-.925.37c-.353.129-.718.22-1.089.269a7.072 7.072 0 0 1-2.144-.06 10.367 10.367 0 0 1-2.006-.568 12.746 12.746 0 0 1-1.886-.913.55.55 0 0 1-.235-.284.597.597 0 0 1-.013-.378l.005-.017c.102-.316.178-.642.228-.972.049-.341.073-.686.073-1.031a11.801 11.801 0 0 0-.235-2.13l-.006-.03a.384.384 0 0 1-.007-.076v-.007a.514.514 0 0 0 .001-.07c.051-.222.099-.209.114-.244l-.099.41-.124-.538-.015-.113c0 .04.009.079.025.115a1.194 1.194 0 0 1-.029-.118l-.01-.058a.405.405 0 0 0 .032.14l-.02-.051a.603.603 0 0 1-.032-.184l.015.108c-.077-.282-.141-.564-.23-.849l-.131-.426c-.041-.139-.096-.3-.112-.372l-.022-.049a21.238 21.238 0 0 0-.615-1.641l-.009-.021a.206.206 0 0 1-.015-.085l.001-.008.022.101c-.239-.538-.46-1.087-.712-1.621l.005.009-.079-.175-.013-.054c.011.061.005.025.019.05v.002h-.002l-.008-.015-.059-.108-.008-.013-.201-.397-.003-.005a.097.097 0 0 1-.007-.063.089.089 0 0 1 .036-.052.08.08 0 0 1 .059-.011c.02.004.038.017.049.035h.001Zm-11.831-100.904a15.222 15.222 0 0 0-2.216 5.449c-.194.96-.317 1.936-.366 2.917-.032.981-.001 1.964.092 2.94l.077.735c.034.295.047.592.037.89a7.503 7.503 0 0 1-.27 1.693 5.896 5.896 0 0 1-1.752 2.846 23.492 23.492 0 0 0-2.293 1.761 3.48 3.48 0 0 0-.73 1.108 2.259 2.259 0 0 0-.159 1.264l-.019-.047c.12.203.281.375.471.503.209.144.44.247.682.304.508.12 1.034.128 1.546.024a.213.213 0 0 1 .094.001.238.238 0 0 1 .152.112.25.25 0 0 1 .035.094l.004.028.001.019c.056.805.105 1.611.178 2.414a27.442 27.442 0 0 0 1.447 6.972 3.579 3.579 0 0 0 1.029 1.624c.047.019.082.057.13.072l.238.082a14.74 14.74 0 0 0 1.566.397c1.445.267 2.91.389 4.376.366.737-.02 1.474-.036 2.211-.084l1.126-.087a4.523 4.523 0 0 1 1.362.099 4.388 4.388 0 0 1 2.364 1.507 7.132 7.132 0 0 1 1.241 2.392c.482 1.622.717 3.317.696 5.019a29.088 29.088 0 0 1-.388 4.933l.001-.038-.074 1.097-.048.546c-.022.194-.022.337-.063.573a.081.081 0 0 1-.028.048.072.072 0 0 1-.05.018.07.07 0 0 1-.048-.023.074.074 0 0 1-.023-.051l-.005-.047-.185-2.148.001-.039a39.992 39.992 0 0 0-.208-4.796 18.576 18.576 0 0 0-.986-4.518 4.005 4.005 0 0 0-.947-1.69 3.63 3.63 0 0 0-1.593-.989 3.76 3.76 0 0 0-.899-.043l-1.143.081c-.775.047-1.554.07-2.333.044a23.656 23.656 0 0 1-4.66-.598 14.809 14.809 0 0 1-1.152-.327 10.594 10.594 0 0 1-.574-.215l-.296-.129a2.516 2.516 0 0 1-.364-.228 3.323 3.323 0 0 1-.917-1.168 7.648 7.648 0 0 1-.489-1.23c-.9-3.298-.793-6.564-.984-9.825l.286.254a4.46 4.46 0 0 1-1.742-.004 3.027 3.027 0 0 1-.851-.338 2.071 2.071 0 0 1-.723-.698.157.157 0 0 1-.018-.042l-.002-.005a3.875 3.875 0 0 1 .016-1.721 3.7 3.7 0 0 1 .758-1.517 21.183 21.183 0 0 1 2.138-2.09 5.469 5.469 0 0 0 1.217-2.302 6 6 0 0 0 .198-1.322c.013-.213.01-.427-.008-.64l-.062-.791a16.84 16.84 0 0 1 .666-6.289 12.155 12.155 0 0 1 3.118-5.269.08.08 0 0 1 .054-.022c.02.001.039.009.054.023a.093.093 0 0 1 .01.115l-.004.006Zm63.346 107.759c-9.702 7.898-21.858 8.711-21.858 8.711s2.406 16.265-.788 44.081a23.518 23.518 0 0 0-.34 4.339 73.175 73.175 0 0 1 8.029-.199c2.793.045 5.581.259 8.352.641 4.179-1.628 7.916-4.342 10.874-7.898 10.867-16.004-4.269-49.675-4.269-49.675Zm-14.981 57.798c-2.668-.087-5.337-.225-8.005-.589.065.857.267 1.524.704 1.611l-1.059 13.726 14.804 1.031s-2.45-9.925 1.495-15.667l.437-.337a69.494 69.494 0 0 1-8.376.225Zm3.096 14.203a1.178 1.178 0 0 1-.83-.397 1.35 1.35 0 0 1-.34-.902c0-.337.122-.661.34-.903a1.18 1.18 0 0 1 .83-.396c.315.012.612.154.83.396.219.242.341.566.341.903 0 .336-.122.66-.341.902a1.174 1.174 0 0 1-.83.397Zm.874-12.419c.314.012.611.154.83.396.218.243.34.566.34.903 0 .337-.122.66-.34.903a1.18 1.18 0 0 1-.83.396 1.181 1.181 0 0 1-.831-.396 1.353 1.353 0 0 1-.34-.903c0-.337.122-.66.341-.903.218-.242.515-.384.83-.396Zm-.874 5.144c.315.012.612.154.83.397.219.242.341.565.341.902 0 .337-.122.66-.341.903a1.177 1.177 0 0 1-.83.396 1.18 1.18 0 0 1-.83-.396 1.353 1.353 0 0 1-.34-.903c0-.337.122-.66.34-.902.219-.243.516-.385.83-.397Z"/>
  <path fill="#020202" d="M468.005 328.2a18.764 18.764 0 0 1 6.3-.882c1.086.025 2.165.173 3.221.444a8.436 8.436 0 0 1 3.061 1.426 6.72 6.72 0 0 1 2.134 2.823c.215.595.321 1.095.533 1.569.217.482.491.932.817 1.339 1.439 1.571 3.262 2.676 5.26 3.189 1.983.559 3.997.979 6.032 1.255 1.038.143 1.984.235 3.101.299 1.077.14 2.142.373 3.185.698 1.067.33 2.092.801 3.051 1.402.506.33.968.731 1.375 1.192.449.505.753 1.136.878 1.82.1.678.007 1.373-.269 1.993a5.965 5.965 0 0 1-.967 1.505 11.59 11.59 0 0 1-2.526 2.113.094.094 0 0 1-.03.012.069.069 0 0 1-.032-.002.07.07 0 0 1-.029-.014.085.085 0 0 1-.021-.025.1.1 0 0 1-.011-.056.103.103 0 0 1 .023-.052 17.481 17.481 0 0 0 1.981-2.514c.272-.418.482-.879.622-1.366.115-.422.121-.868.017-1.293a3.505 3.505 0 0 0-1.789-1.856 13.253 13.253 0 0 0-2.747-1.082 26.958 26.958 0 0 0-2.934-.686 37.17 37.17 0 0 1-3.114-.479 24.629 24.629 0 0 1-6.1-1.973 17.285 17.285 0 0 1-5.343-3.702 8.259 8.259 0 0 1-1.011-1.372 6.087 6.087 0 0 1-.409-.775l-.348-.707a5.622 5.622 0 0 0-2.06-2.044 14.35 14.35 0 0 0-5.642-1.742 47.81 47.81 0 0 0-6.181-.287.078.078 0 0 1-.059-.022.09.09 0 0 1-.026-.061c0-.019.005-.038.015-.053a.086.086 0 0 1 .042-.034Z"/>
  <path fill="#020202" d="M459.096 335.382a27.5 27.5 0 0 0 3.178-.577 9.922 9.922 0 0 0 1.501-.497c.51-.231 1.029-.419 1.552-.603a18.546 18.546 0 0 1 6.557-1.152 8.394 8.394 0 0 1 3.406.781 6.266 6.266 0 0 1 1.524 1.094c.448.46.823.997 1.108 1.588.275.575.48 1.186.609 1.817l.207.709c.092.23.197.453.314.669a7.497 7.497 0 0 0 2.016 2.243 18.355 18.355 0 0 0 5.734 2.687c1.029.301 2.074.562 3.131.766 1.053.206 2.129.312 3.212.508a26.772 26.772 0 0 1 6.294 1.907 11.38 11.38 0 0 1 2.924 1.719c.465.402.841.907 1.104 1.481.134.297.23.613.285.938.037.325.047.653.032.981a7.878 7.878 0 0 1-1.292 3.43c-.306.504-.638.989-.993 1.454l-.13.177-.195.2a1.953 1.953 0 0 1-.408.336c-.264.18-.544.332-.837.452a20.115 20.115 0 0 1-6.633 1.015 65.803 65.803 0 0 1-13.075-1.085 36.474 36.474 0 0 1-6.421-1.748c-1.105-.464-1.966-.923-2.995-1.285a40.36 40.36 0 0 0-3.057-.989c-4.141-1.179-8.405-1.997-12.676-2.739a.085.085 0 0 1-.054-.034.095.095 0 0 1-.016-.064.095.095 0 0 1 .029-.054.08.08 0 0 1 .055-.021c4.352.155 8.685.688 12.956 1.595 1.069.254 2.137.526 3.197.868 1.047.308 2.158.818 3.084 1.151a40.409 40.409 0 0 0 6.189 1.499 79.862 79.862 0 0 0 12.77 1.277 37.648 37.648 0 0 0 3.177-.116 12.493 12.493 0 0 0 3.023-.558c.217-.077.425-.177.623-.297a.9.9 0 0 0 .243-.178l.107-.091.128-.159c.355-.409.69-.837 1.004-1.282a6.79 6.79 0 0 0 1.317-2.859 3.246 3.246 0 0 0-.173-1.505 3.045 3.045 0 0 0-.827-1.23 9.477 9.477 0 0 0-2.679-1.737 21.29 21.29 0 0 0-6.159-1.893c-4.255-.467-8.765-.799-12.745-3.318a8.194 8.194 0 0 1-2.508-2.657 7.772 7.772 0 0 1-.418-.879l-.282-.949a7.033 7.033 0 0 0-.465-1.453c-.792-1.853-2.802-2.678-4.832-2.822a19.988 19.988 0 0 0-6.256.7c-.518.131-1.033.284-1.543.442-.538.161-1.088.278-1.644.349-1.084.15-2.178.208-3.272.171a.083.083 0 0 1-.056-.027.088.088 0 0 1-.022-.062.093.093 0 0 1 .022-.056.08.08 0 0 1 .051-.028Z"/>
  <path fill="#A699F7" d="M424.537 335.767c-.13 0-.259.009-.389 0v-.078l.389.078Z"/>
  <path fill="#020202" d="M409.866 285.982a26.461 26.461 0 0 1-2.457 4.304 25.332 25.332 0 0 1-3.108 3.79 26.222 26.222 0 0 1 2.457-4.303 25.744 25.744 0 0 1 3.108-3.791Z"/>
  <path stroke="#020202" stroke-linecap="round" stroke-linejoin="round" stroke-width=".906" d="m461.523 273.69 1.548 4.92"/>
  <path fill="#020202" d="M395.739 270.781c-2.103 2.356-4.26 4.651-6.407 6.96l-3.283 3.402-.839.842c-.141.138-.31.284-.434.418l-.323.385c-.46.615-.906 1.266-1.352 1.919-3.552 5.256-6.989 10.636-10.532 15.931-1.784 2.642-3.578 5.27-5.52 7.815-1.949 2.512-3.942 4.996-6.09 7.331a93.555 93.555 0 0 1-14.167 12.373.315.315 0 0 1-.057.031 350.672 350.672 0 0 0-12.055 4.972l-2.975 1.325a18.77 18.77 0 0 0-2.812 1.48c-.4.268-.758.604-1.058.995-.11.137-.185.303-.217.48a.302.302 0 0 0 .092.289c.311.289.685.489 1.088.582.487.134.983.23 1.483.288a.635.635 0 0 1 .366.183c.101.1.171.232.199.377a.753.753 0 0 1-.044.43.687.687 0 0 1-.269.322l-.017.011c-.699.43-1.372.908-2.014 1.43-.31.25-.605.522-.881.814a2.54 2.54 0 0 0-.557.806c-.044.116-.013.107-.022.083a.729.729 0 0 0 .118.091c.299.15.618.246.946.285.787.106 1.58.145 2.373.116a.741.741 0 0 1 .451.148.82.82 0 0 1 .284.404.877.877 0 0 1 .01.505.83.83 0 0 1-.269.415l-.018.015a10.31 10.31 0 0 0-1.209 1.148c-.34.352-.611.772-.798 1.236-.054.185-.032.264-.015.299a.623.623 0 0 0 .272.235c.444.21.919.338 1.403.377a.788.788 0 0 1 .35.135.855.855 0 0 1 .258.289.914.914 0 0 1 .052.775l-.006.017a1.32 1.32 0 0 0-.083.647c.003.042-.002-.037-.022-.018.026-.006.027.006.059.017.048 0 .096.006.143.017a5.424 5.424 0 0 0 1.937-.543c1.376-.653 2.825-1.44 4.195-2.232a52.72 52.72 0 0 0 4.03-2.572 17.634 17.634 0 0 0 3.48-3.083l.03-.037a.71.71 0 0 1 .151-.139c.539-.37 1.105-.693 1.691-.968a6.92 6.92 0 0 1 1.923-.606c.186-.013.366-.033.555-.032.201.02.4.041.599.076.21.069.417.152.618.247.192.136.375.286.548.449.493.659.756 1.48.745 2.324a.636.636 0 0 1-.043.306l-.023.055a28.295 28.295 0 0 0-2.204 7.661 4.11 4.11 0 0 0 .16 1.712.966.966 0 0 0 .397.48c.231.168.476.312.733.43.622.474 1.494-.986 2.164-2.05 1.374-2.297 2.743-4.727 4.07-7.029a22.423 22.423 0 0 0 1.837-7.924.086.086 0 0 1 .027-.059.08.08 0 0 1 .059-.022c.02.002.039.012.053.028a.09.09 0 0 1 .022.058 21.956 21.956 0 0 1-1.4 8.229c-.607 1.295-1.259 2.438-1.881 3.669-.631 1.211-1.25 2.426-1.918 3.634-.335.63-.713 1.231-1.131 1.8a2.844 2.844 0 0 1-.923.826 1.617 1.617 0 0 1-.711.185 2.068 2.068 0 0 1-.662-.132 4.767 4.767 0 0 1-.987-.523 2.171 2.171 0 0 1-.513-.435 2.433 2.433 0 0 1-.374-.594 5.397 5.397 0 0 1-.329-2.371c.111-1.441.374-2.863.783-4.24a42.354 42.354 0 0 1 1.341-3.999l-.066.36a2.266 2.266 0 0 0-.354-1.212 1.087 1.087 0 0 0-.475-.219 1.047 1.047 0 0 0-.515.03c-.506.094-.998.26-1.462.494-.496.24-.973.521-1.429.839l.181-.176a19.194 19.194 0 0 1-3.807 3.487 47.273 47.273 0 0 1-4.17 2.67c-1.436.818-2.825 1.589-4.367 2.3-.844.4-1.754.617-2.677.638a6.762 6.762 0 0 1-.449-.071 2.976 2.976 0 0 1-.498-.211 1.752 1.752 0 0 1-.726-1.011 2.436 2.436 0 0 1-.053-1.009c.038-.289.11-.572.215-.842l.654 1.216a5.413 5.413 0 0 1-1.974-.602 2.218 2.218 0 0 1-.962-1.055c-.19-.49-.2-1.04-.026-1.538a5.314 5.314 0 0 1 1.176-1.849c.445-.484.926-.927 1.439-1.325l.458 1.486a15.269 15.269 0 0 1-2.641-.179 4.071 4.071 0 0 1-1.445-.5 2.58 2.58 0 0 1-.396-.32 1.643 1.643 0 0 1-.335-.543 1.724 1.724 0 0 1 .018-1.223c.214-.514.53-.973.925-1.344a10.4 10.4 0 0 1 1.043-.917 20.254 20.254 0 0 1 2.212-1.481l.235 1.322a11.103 11.103 0 0 1-1.684-.379 3.431 3.431 0 0 1-1.693-1.073 1.824 1.824 0 0 1-.3-.609 1.819 1.819 0 0 1-.022-.705l.073-.326.122-.267c.079-.166.175-.321.287-.463.399-.489.87-.904 1.396-1.228a19.386 19.386 0 0 1 3.035-1.447l3.039-1.206 12.183-4.648-.057.03a68.995 68.995 0 0 0 13.824-12.538c2.024-2.404 3.902-4.948 5.739-7.53 1.806-2.58 3.559-5.244 5.334-7.88l5.349-7.907c1.798-2.628 3.562-5.28 5.44-7.86.477-.642.954-1.283 1.47-1.917.139-.163.308-.335.463-.498.151-.147.284-.25.428-.381l.856-.79 3.397-3.247 6.829-6.478a.095.095 0 0 1 .027-.017.088.088 0 0 1 .032-.004c.01 0 .021.003.03.008.01.005.018.012.025.021a.083.083 0 0 1 .02.059.09.09 0 0 1-.022.059Z"/>
  <path fill="#020202" d="M395.736 270.777c-2.102 2.356-4.26 4.651-6.403 6.963l-3.283 3.403-.84.84c-.138.139-.308.286-.437.416l-.324.39c-.46.615-.905 1.264-1.35 1.914l-10.527 15.934c-1.786 2.642-3.581 5.274-5.522 7.821-1.948 2.511-3.945 4.988-6.088 7.326a93.939 93.939 0 0 1-14.173 12.376.494.494 0 0 1-.057.026 369.76 369.76 0 0 0-12.054 4.971c-.995.433-1.989.874-2.976 1.324-.969.415-1.907.911-2.805 1.481-.402.268-.76.604-1.059.996-.06.081-.111.168-.154.26l-.057.121a.402.402 0 0 1-.008.104.31.31 0 0 0 .005.157.277.277 0 0 0 .084.129c.313.289.688.488 1.092.58.234.07.477.122.719.173l.372.052.388.061a.665.665 0 0 1 .437.279c.106.15.152.34.129.526a.768.768 0 0 1-.108.299.699.699 0 0 1-.215.221h-.008c-.372.234-.752.485-1.116.754-.307.216-.606.441-.897.675a10.42 10.42 0 0 0-.882.814c-.23.23-.419.503-.558.806a.248.248 0 0 0-.016.086l.008.009a.65.65 0 0 0 .105.078c.298.152.618.249.946.285.603.09 1.211.13 1.819.122h.558a.74.74 0 0 1 .544.231.852.852 0 0 1 .233.574.815.815 0 0 1-.073.338.695.695 0 0 1-.227.329l-.024.009c-.428.351-.83.736-1.205 1.151-.34.353-.612.774-.8 1.239-.057.182-.032.26-.016.294a.595.595 0 0 0 .275.234c.349.178.723.292 1.107.338.097.017.195.035.291.043a.794.794 0 0 1 .549.324.933.933 0 0 1 .171.646.672.672 0 0 1-.057.225l-.008.018a2.133 2.133 0 0 0-.048.155v.009a1.036 1.036 0 0 0-.033.476c.014 0 .028.003.041.009a.79.79 0 0 1 .137.017 5.381 5.381 0 0 0 1.941-.545c1.374-.65 2.822-1.438 4.196-2.226a53.076 53.076 0 0 0 4.026-2.581 17.793 17.793 0 0 0 3.485-3.074l.024-.043a.81.81 0 0 1 .154-.139 13.445 13.445 0 0 1 1.69-.97 7.074 7.074 0 0 1 1.924-.606c.186-.009.364-.026.558-.026.2.014.4.04.598.078.21.066.415.147.615.242.193.136.377.286.549.451.49.659.753 1.478.744 2.321a.699.699 0 0 1-.048.32l-.016.043a40.046 40.046 0 0 0-1.383 3.785 19.577 19.577 0 0 0-.825 3.88 4.204 4.204 0 0 0 .162 1.706c.039.099.093.19.162.268a.344.344 0 0 0 .089.104l.048.044.097.069c.231.169.477.311.736.424.623.476 1.496-.987 2.159-2.044 1.374-2.303 2.749-4.728 4.075-7.032a22.507 22.507 0 0 0 1.835-7.924.094.094 0 0 1 .008-.033.08.08 0 0 1 .049-.043.069.069 0 0 1 .032-.002c.01 0 .02.003.029.007a.082.082 0 0 1 .044.08 21.925 21.925 0 0 1-1.399 8.227c-.606 1.29-1.261 2.434-1.884 3.663-.63 1.213-1.245 2.434-1.916 3.638a14.98 14.98 0 0 1-1.132 1.801 2.831 2.831 0 0 1-.922.823 1.633 1.633 0 0 1-.711.19 1.964 1.964 0 0 1-.663-.138 4.98 4.98 0 0 1-.987-.52 2.058 2.058 0 0 1-.509-.433 2.243 2.243 0 0 1-.38-.598 5.403 5.403 0 0 1-.323-2.373c.11-1.438.37-2.858.776-4.234a43.586 43.586 0 0 1 1.261-3.768 1.922 1.922 0 0 0-.34-1.082 1.035 1.035 0 0 0-.986-.191 5.48 5.48 0 0 0-1.463.494 10.82 10.82 0 0 0-1.367.797 19.694 19.694 0 0 1-3.687 3.351 47.038 47.038 0 0 1-4.171 2.668c-1.431.822-2.822 1.593-4.366 2.303-.844.4-1.754.618-2.677.641-.153-.026-.299-.043-.452-.078a3.323 3.323 0 0 1-.493-.208 1.846 1.846 0 0 1-.68-.848.666.666 0 0 1-.048-.165 2.371 2.371 0 0 1-.073-.805 4.32 4.32 0 0 1-.768-.269 2.85 2.85 0 0 1-.315-.164 2.207 2.207 0 0 1-.962-1.048 2.103 2.103 0 0 1-.122-1.143 2.58 2.58 0 0 1 .097-.399 5.054 5.054 0 0 1 1.108-1.775c-.154-.009-.307-.035-.461-.052-.073-.009-.146-.026-.218-.035a4.098 4.098 0 0 1-1.447-.502 3.289 3.289 0 0 1-.397-.32 1.62 1.62 0 0 1-.331-.546 1.75 1.75 0 0 1 0-1.186c.008-.018.008-.026.016-.035.216-.514.533-.972.93-1.342.234-.243.477-.459.727-.676.219-.164.437-.338.655-.502a.072.072 0 0 1 .033-.018c.129-.086.25-.181.38-.268-.008 0-.008 0-.016-.009a3.286 3.286 0 0 1-1.666-1.056 1.894 1.894 0 0 1-.307-.606 1.906 1.906 0 0 1-.016-.71 2.31 2.31 0 0 1 .072-.33l.122-.259c.079-.166.174-.323.283-.468a5.716 5.716 0 0 1 1.398-1.23 20.037 20.037 0 0 1 3.032-1.446l3.04-1.204 12.152-4.633a69.003 69.003 0 0 0 13.802-12.523c2.021-2.407 3.897-4.945 5.74-7.525 1.803-2.581 3.557-5.248 5.328-7.881 3.557-5.283 7.066-10.592 10.794-15.77.477-.641.954-1.282 1.471-1.914.138-.165.308-.338.461-.503.154-.147.283-.251.429-.381l.857-.788 3.395-3.247 6.824-6.478a.087.087 0 0 1 .063-.022.09.09 0 0 1 .059.031.09.09 0 0 1 .017.058.084.084 0 0 1-.026.054Z"/>
  <path fill="#020202" d="M341.322 332.813c-.909.937-7.13 4.983-8.183 5.654a43.424 43.424 0 0 1-2.623 1.542c-.207.11-.413.221-.627.331-.824.444-1.67.84-2.533 1.188.007-.015.007-.022.014-.03.183-.438.453-.827.791-1.143.2-.206.406-.391.62-.575.186-.14.372-.288.558-.428a.049.049 0 0 1 .027-.015 54.988 54.988 0 0 1 1.57-1.15c.496-.339.991-.671 1.501-.988 1.053-.679 7.68-3.973 8.885-4.386Zm0 3.952c-.992 1.149-7.285 5.872-8.453 6.753l-.638.472a56.352 56.352 0 0 1-2.967 2.022c-.177.11-.353.22-.529.322.02-.123.049-.244.088-.362a4.61 4.61 0 0 1 1.006-1.612c-.139-.008-.279-.032-.418-.047.55-.464 1.108-.921 1.674-1.361.308-.252.624-.488.94-.724 1.168-.881 7.953-4.849 9.297-5.463Zm0 3.824c-.864 1.11-7.339 6.788-8.397 7.624-.211.169-.428.338-.646.499v.008c-.481.37-.961.732-1.457 1.077a.567.567 0 0 1-.045-.152 2.193 2.193 0 0 1-.067-.748 3.953 3.953 0 0 1-.714-.25c.473-.426 1.84-1.56 2.035-1.721 1.051-.844 8.052-5.757 9.291-6.337Zm87.798-119.88a11.947 11.947 0 0 1 8.108.677c2.539 1.222 4.783 3.052 6.559 5.348a40.715 40.715 0 0 1 4.651 7.297 70.25 70.25 0 0 1 3.47 7.99 145.749 145.749 0 0 1 4.894 16.767c1.359 5.671 2.341 11.43 3.255 17.189.006.04.009.081.01.121v.009l-.01-.121c1.263 8.404 2.136 16.864 2.829 25.33.323 4.236.682 8.467.937 12.707.25 4.241.503 8.478.681 12.728l-.412-.236a22.935 22.935 0 0 1 8.049-3.023 19.938 19.938 0 0 1 8.542.28c1.41.356 2.75.927 4.056 1.37a22.4 22.4 0 0 0 4.049.91c1.35.181 2.718.161 4.064-.062a9.572 9.572 0 0 0 1.927-.547 6.105 6.105 0 0 0 1.635-.968l.017.984a24.49 24.49 0 0 1-4.214-6.54c-1.122-2.31-2.124-4.668-3.078-7.043-1.901-4.755-3.625-9.573-5.319-14.398-3.403-9.645-6.537-19.379-9.852-29.036-3.353-9.637-6.647-19.305-10.603-28.657-.986-2.345-2.012-4.636-3.179-6.864a54.98 54.98 0 0 0-3.933-6.379c-2.857-4.109-6.42-7.596-10.499-10.272l-.006-.004a.158.158 0 0 1-.057-.063.17.17 0 0 1-.02-.085v-.009l.083.152a22.936 22.936 0 0 0-1.703-.969 19.22 19.22 0 0 0-.88-.424c-.284-.135-.623-.254-.879-.352l-.046-.018a.078.078 0 0 1-.042-.04.086.086 0 0 1-.005-.061.082.082 0 0 1 .036-.047.076.076 0 0 1 .057-.008c.323.09.641.198.953.325.305.121.607.251.906.388.598.274 1.185.577 1.76.902a.157.157 0 0 1 .06.06.18.18 0 0 1 .024.084v.017l-.084-.152c4.259 2.514 8.005 5.914 11.021 9.999a62.825 62.825 0 0 1 7.572 13.254c4.108 9.351 7.675 18.944 11.01 28.612 3.354 9.661 6.565 19.37 9.819 29.048 1.645 4.831 3.319 9.65 5.16 14.382.928 2.361 1.867 4.719 2.933 6.995a23.649 23.649 0 0 0 3.811 6.203l.063.066a.64.64 0 0 1-.047.918 8.354 8.354 0 0 1-4.228 1.749c-1.45.2-2.92.182-4.365-.052a23.51 23.51 0 0 1-4.196-1.065c-1.369-.512-2.648-1.088-3.979-1.459a19.29 19.29 0 0 0-8.249-.468 22.083 22.083 0 0 0-7.858 2.857l-.011.007a.245.245 0 0 1-.1.035.249.249 0 0 1-.199-.059.296.296 0 0 1-.103-.218 277.937 277.937 0 0 0-.686-12.704c-.322-4.229-.652-8.458-1.12-12.672-.445-4.215-.968-8.42-1.532-12.617-.543-4.2-1.242-8.372-1.901-12.549a.821.821 0 0 1-.009-.121v-.009l.009.121c-.924-5.731-2.053-11.418-3.293-17.07a144.39 144.39 0 0 0-4.676-16.65c-1.939-5.379-4.187-10.736-7.61-15.181-1.653-2.26-3.749-4.103-6.14-5.4a11.98 11.98 0 0 0-7.853-1.039.08.08 0 0 1-.031 0 .101.101 0 0 1-.03-.013.126.126 0 0 1-.022-.024.088.088 0 0 1-.012-.032.098.098 0 0 1 .012-.063.088.088 0 0 1 .049-.038Zm-236.519-44.046s5.196 6.932 12.958 4.646c0 0 16.287-7.662.713-15.814-15.574-8.151-16.123-6.201-22.09-7.452-1.577-.33-12.335-3.283-18.087 4.208a13.703 13.703 0 0 0-2.26 4.749 14.23 14.23 0 0 0-.339 5.317c.109.966.237 2.016.371 2.942a14.094 14.094 0 0 1-.077 4.532 47.357 47.357 0 0 0 .491 18.661s9.626 1.534 15.115-5.785c0 0 1.076-12.968 7.694-4.495 0 0 5.511 2.209 5.511-11.509Zm203.163 20.495c.993.123 1.996.136 2.992.039.459-.071.903-.22 1.318-.442.436-.265.838-.59 1.194-.968a2.76 2.76 0 0 1-.834 1.523 3.082 3.082 0 0 1-1.562.744 3.97 3.97 0 0 1-1.657-.127 3.704 3.704 0 0 1-1.451-.769Zm-198.109 8.744a3.76 3.76 0 0 1-.839 2.375 3.305 3.305 0 0 1-2.092 1.195 3.09 3.09 0 0 1-1.363-.122 3.255 3.255 0 0 1-1.201-.702 3.633 3.633 0 0 1-.867-1.236 3.86 3.86 0 0 1-.002-3.022c.203-.474.499-.896.867-1.236.35-.322.759-.562 1.201-.705a3.098 3.098 0 0 1 1.365-.122 3.31 3.31 0 0 1 2.092 1.198c.54.657.838 1.502.839 2.377Zm0 0a2.936 2.936 0 0 0-.248-1.179 2.756 2.756 0 0 0-.691-.955 2.433 2.433 0 0 0-.938-.516 2.349 2.349 0 0 0-1.054-.055 2.53 2.53 0 0 0-1.522.94 2.87 2.87 0 0 0-.601 1.767c0 .647.213 1.273.601 1.768.388.495.927.827 1.522.939.351.062.711.043 1.054-.056.344-.099.664-.276.939-.518.293-.261.529-.587.691-.956.162-.369.246-.771.247-1.179Z"/>
  <path fill="#A699F7" d="M440.763 335.741a.16.16 0 0 1 0 .069c-.121-.008-.234-.026-.355-.043.121-.009.234-.026.355-.026Zm-28.305-63.444c.008.01.014.022.016.035a2.299 2.299 0 0 1-.081-.14c.024.035.04.07.065.105Z"/>
  <path fill="#020202" d="M491.013 324.107a1.18 1.18 0 0 0 .831-.396c.219-.242.341-.566.341-.903 0-.337-.122-.661-.341-.903a1.172 1.172 0 0 0-.831-.396 1.171 1.171 0 0 0-.83.396 1.347 1.347 0 0 0-.341.903c0 .337.122.661.341.903.218.242.516.384.83.396Zm-6.112-1.559c.315-.012.612-.154.831-.396.219-.242.341-.566.341-.903 0-.337-.122-.661-.341-.903a1.181 1.181 0 0 0-.831-.396 1.183 1.183 0 0 0-.831.396c-.218.242-.34.566-.34.903 0 .337.122.661.34.903.219.242.517.384.831.396Zm-5.53-1.559c.314-.011.612-.153.831-.396.218-.242.34-.566.34-.903 0-.337-.122-.661-.34-.903a1.183 1.183 0 0 0-.831-.396 1.183 1.183 0 0 0-.831.396 1.352 1.352 0 0 0-.341.903c0 .337.123.661.341.903.219.243.517.385.831.396Zm-5.53 0c.314-.011.612-.153.83-.396.219-.242.341-.566.341-.903 0-.337-.122-.661-.341-.903a1.18 1.18 0 0 0-.83-.396 1.18 1.18 0 0 0-.831.396 1.347 1.347 0 0 0-.341.903c0 .337.122.661.341.903.218.243.516.385.831.396Z"/>
  <path fill="#000" d="M295.069 252.755c1.111.42 2.167.992 3.141 1.702a13.752 13.752 0 0 1 2.695 2.424 13.21 13.21 0 0 1-3.14-1.702 13.915 13.915 0 0 1-2.696-2.424Zm-2.576 3.534c1.103.414 2.151.981 3.117 1.685a13.607 13.607 0 0 1 2.672 2.408 13.018 13.018 0 0 1-3.117-1.685 13.73 13.73 0 0 1-2.672-2.408Zm-3.859 3.013a18.927 18.927 0 0 1 3.708 2.103 19.472 19.472 0 0 1 3.263 2.825 18.775 18.775 0 0 1-3.708-2.103 19.644 19.644 0 0 1-3.263-2.825Zm-12.873 1.946a64.442 64.442 0 0 1 6.659 4.188 64.978 64.978 0 0 1 6.214 4.912 63.945 63.945 0 0 1-6.659-4.189 66.023 66.023 0 0 1-6.214-4.911Zm-2.623 3.5a64.73 64.73 0 0 1 6.659 4.189 64.978 64.978 0 0 1 6.214 4.912 63.84 63.84 0 0 1-6.659-4.189 65.871 65.871 0 0 1-6.214-4.912Zm-2.677 3.849a64.282 64.282 0 0 1 6.659 4.189 65.125 65.125 0 0 1 6.214 4.911 63.945 63.945 0 0 1-6.659-4.189 65.699 65.699 0 0 1-6.214-4.911Zm8.511-10.532a64.622 64.622 0 0 1 6.659 4.189 64.978 64.978 0 0 1 6.214 4.912 63.945 63.945 0 0 1-6.659-4.189 66 66 0 0 1-6.214-4.912Zm.933-83.587a32.802 32.802 0 0 0 1.422-7.52c.098-1.277.113-2.56.047-3.839-.019-.64-.132-1.273-.194-1.909a15.221 15.221 0 0 0-.281-1.892l-.392-1.871c-.141-.62-.36-1.218-.535-1.827a32.536 32.536 0 0 0-1.335-3.545 30.766 30.766 0 0 0-3.93-6.342l-.568-.733c-.201-.233-.418-.449-.627-.675l-1.262-1.34-1.375-1.206-.689-.6c-.239-.187-.492-.353-.737-.53l-1.482-1.048c-.51-.32-1.04-.605-1.559-.909a26.513 26.513 0 0 0-3.237-1.559 26.488 26.488 0 0 0-14.01-1.483 26.32 26.32 0 0 0-3.472.872c-.564.2-1.151.335-1.699.588l-1.654.727c-3.272 1.58-6.218 3.841-8.668 6.65a29.422 29.422 0 0 0-5.602 9.717 31 31 0 0 0-1.373 15.044c.782 5.039 2.775 9.773 5.782 13.737l.133.175-.07.217-4.382 13.507-.49-.604 17.586-3.802.107-.024.106.036c6.78 2.336 14.137 1.803 20.56-1.489 3.214-1.642 6.094-3.947 8.476-6.782a29.514 29.514 0 0 0 5.404-9.741Zm.079.029c-2.393 7.324-7.309 13.392-13.743 16.959-6.502 3.587-14.066 4.266-21.035 1.89l.214.013-17.584 3.813-.745.162.254-.765 4.472-13.473.063.391c-3.025-4.094-5-8.962-5.729-14.125a31.981 31.981 0 0 1 1.571-15.308c1.763-4.841 4.649-9.121 8.385-12.434 3.737-3.314 8.201-5.553 12.97-6.504a26.128 26.128 0 0 1 14.341 1.284c4.598 1.777 8.667 4.843 11.782 8.878.379.508.772 1.004 1.134 1.524l.994 1.633c.34.537.643 1.1.907 1.684.274.578.575 1.142.826 1.731a33.121 33.121 0 0 1 1.268 3.636c.164.623.37 1.233.498 1.864l.351 1.902a32.866 32.866 0 0 1-1.194 15.245Z"/>
</svg>
